<svg xmlns="http://www.w3.org/2000/svg" viewBox="0 0 530.45 230.27"><defs><style>.cls-1,.cls-2{fill:#bbbdbf;}.cls-1{opacity:0.4;}.cls-3{fill:#d0d2d3;}</style></defs><title>Asset 1</title><g id="Layer_2" data-name="Layer 2"><g id="Layer_1-2" data-name="Layer 1"><rect class="cls-1" x="304.47" y="86.96" width="8.63" height="15.66"/><rect class="cls-1" x="327.72" y="86.96" width="8.63" height="15.66"/><rect class="cls-1" x="356.13" y="86.96" width="8.63" height="15.66"/><rect class="cls-1" x="373.48" y="86.96" width="8.63" height="15.66"/><rect class="cls-1" x="190.36" y="86.96" width="8.63" height="15.66"/><rect class="cls-1" x="213.61" y="86.96" width="8.63" height="15.66"/><polygon class="cls-2" points="263.34 29.87 153.48 29.87 174.6 15.79 189.55 3.94 232.35 3.94 232.35 4.45 189.73 4.45 174.91 16.21 155.18 29.36 263.34 29.36 263.34 29.87"/><polygon class="cls-2" points="231.37 50.93 182.71 50.93 182.71 43.35 177.83 43.35 177.83 40.4 144.1 40.4 155.14 31.54 263.34 31.54 263.34 32.05 155.32 32.05 145.56 39.89 178.34 39.89 178.34 42.84 183.22 42.84 183.22 50.41 230.85 50.41 230.85 43.61 246.26 43.61 246.26 44.12 231.37 44.12 231.37 50.93"/><polygon class="cls-2" points="199.57 47.16 189.72 47.16 189.72 38.48 190.24 38.48 190.24 46.65 199.05 46.65 199.05 38.48 199.57 38.48 199.57 47.16"/><path class="cls-2" d="M199.57,38.47h-.51a4.41,4.41,0,0,0-8.82,0h-.51a4.92,4.92,0,0,1,9.84,0Z"/><path class="cls-1" d="M191.69,39.84a3,3,0,1,1,6,0v5.4h-6v-5.4"/><path class="cls-2" d="M197.86,45.42H191.5V39.83a3.18,3.18,0,1,1,6.36,0Zm-6-.39h5.59v-5.2a2.79,2.79,0,1,0-5.59,0Z"/><polygon class="cls-2" points="222.85 47.16 213.01 47.16 213.01 38.48 213.52 38.48 213.52 46.65 222.34 46.65 222.34 38.48 222.85 38.48 222.85 47.16"/><path class="cls-2" d="M222.85,38.47h-.51a4.41,4.41,0,0,0-8.82,0H213a4.92,4.92,0,0,1,9.84,0Z"/><path class="cls-1" d="M215,39.84a3,3,0,1,1,6,0v5.4h-6v-5.4"/><path class="cls-2" d="M221.14,45.42h-6.36V39.83a3.18,3.18,0,1,1,6.36,0Zm-6-.39h5.59v-5.2a2.79,2.79,0,1,0-5.59,0Z"/><path class="cls-2" d="M238.68,12.41h-6.85V0h6.85Zm-5.82-1h4.79V1h-4.79Z"/><path class="cls-2" d="M178.21,43.18H138.15V40h40.06Zm-39.8-.26H178V40.27H138.41Z"/><path class="cls-2" d="M183.22,50.93H133.06V43.87h50.16Zm-49.64-.51h49.13v-6H133.57Z"/><path class="cls-2" d="M186,54.87H130.32V52.21H186Zm-55.12-.51h54.61V52.73H130.84Z"/><path class="cls-2" d="M234.38,54.87h-6.91V52.21h6.91Zm-6.4-.51h5.88V52.73H228Z"/><path class="cls-2" d="M227.86,54.74h-42.4v-2.4h42.4Zm-42.14-.26H227.6V52.6H185.71Z"/><path class="cls-2" d="M274.45,55H252.28v-2.2h22.16Zm-21.91-.26h21.65V53H252.54Z"/><path class="cls-2" d="M182.36,58.38H134.43V55.72h47.93Zm-47.42-.51h46.91V56.24H134.94Z"/><path class="cls-2" d="M229.65,58.25H182v-2.4h47.68ZM182.23,58H229.4V56.11H182.23Z"/><path class="cls-2" d="M249.8,58.38H236.93V55.72H249.8Zm-12.36-.51h11.85V56.24H237.44Z"/><polygon class="cls-3" points="141.24 126.99 131.04 119.85 133.62 79.92 133.62 59.49 134.39 59.49 134.39 79.94 131.83 119.47 140.47 125.51 140.47 80.2 141.24 80.2 141.24 126.99"/><polygon class="cls-3" points="186.37 126.64 174.1 126.64 174.1 80.2 174.87 80.2 174.87 125.87 185.54 125.87 182.24 80.23 182.24 59.49 183 59.49 183 80.2 186.37 126.64"/><path class="cls-2" d="M174.62,110.76h-33.9v-2.12h33.9ZM141,110.5h33.38v-1.6H141Z"/><path class="cls-2" d="M230.34,110.76H185.09v-2.12h45.25Zm-45-.26h44.73v-1.6H185.35Z"/><path class="cls-2" d="M155,76.35H142.78V59.6H155Zm-11.75-.51h11.23V60.11H143.29Z"/><rect class="cls-1" x="144.64" y="61.71" width="8.6" height="11.56"/><path class="cls-2" d="M153.43,73.46h-9V61.52h9Zm-8.6-.39H153V61.91h-8.22Z"/><path class="cls-2" d="M154,74.91H143.83V73.08H154Zm-9.76-.39h9.37V73.46h-9.37Z"/><rect class="cls-2" x="147.94" y="58.92" width="1.93" height="2.57"/><path class="cls-2" d="M150.06,61.68h-2.31v-3h2.31Zm-1.93-.39h1.54V59.11h-1.54Z"/><rect class="cls-2" x="141.55" y="82.75" width="14.72" height="0.39"/><rect class="cls-2" x="142.23" y="83.78" width="13.35" height="0.39"/><rect class="cls-2" x="142.23" y="102.44" width="13.35" height="0.39"/><rect class="cls-2" x="142.84" y="103.63" width="12.13" height="0.39"/><rect class="cls-2" x="142.84" y="83.88" width="0.39" height="18.75"/><rect class="cls-2" x="144.44" y="83.97" width="0.39" height="18.66"/><rect class="cls-2" x="153.05" y="83.97" width="0.39" height="18.66"/><rect class="cls-2" x="154.59" y="83.97" width="0.39" height="18.66"/><rect class="cls-2" x="144.61" y="86.77" width="8.6" height="0.39"/><rect class="cls-1" x="144.25" y="114.1" width="7.58" height="9.31"/><path class="cls-2" d="M152,123.6h-8v-9.69h8Zm-7.58-.39h7.19v-8.92h-7.19Z"/><path class="cls-2" d="M149.1,114.29h-2.21v-3.08h2.21Zm-1.83-.39h1.44v-2.31h-1.44Z"/><rect class="cls-2" x="143.74" y="124.05" width="8.79" height="0.39"/><path class="cls-2" d="M172.4,76.35H160.14V59.6H172.4Zm-11.75-.51h11.23V60.11H160.65Z"/><rect class="cls-1" x="162" y="61.71" width="8.6" height="11.56"/><path class="cls-2" d="M170.8,73.46h-9V61.52h9Zm-8.6-.39h8.22V61.91h-8.22Z"/><path class="cls-2" d="M171.34,74.91H161.2V73.08h10.14Zm-9.76-.39H171V73.46h-9.37Z"/><rect class="cls-2" x="165.31" y="58.92" width="1.93" height="2.57"/><path class="cls-2" d="M167.43,61.68h-2.31v-3h2.31Zm-1.93-.39H167V59.11H165.5Z"/><rect class="cls-2" x="158.91" y="82.75" width="14.72" height="0.39"/><rect class="cls-2" x="159.59" y="83.78" width="13.35" height="0.39"/><rect class="cls-2" x="159.59" y="102.44" width="13.35" height="0.39"/><rect class="cls-2" x="160.2" y="103.63" width="12.13" height="0.39"/><rect class="cls-2" x="160.2" y="83.88" width="0.39" height="18.75"/><rect class="cls-2" x="161.81" y="83.97" width="0.39" height="18.66"/><rect class="cls-2" x="170.41" y="83.97" width="0.39" height="18.66"/><rect class="cls-2" x="171.95" y="83.97" width="0.39" height="18.66"/><rect class="cls-2" x="161.97" y="86.77" width="8.6" height="0.39"/><rect class="cls-1" x="161.62" y="114.1" width="7.58" height="9.31"/><path class="cls-2" d="M169.38,123.6h-8v-9.69h8Zm-7.58-.39H169v-8.92h-7.19Z"/><path class="cls-2" d="M166.46,114.29h-2.21v-3.08h2.21Zm-1.83-.39h1.44v-2.31h-1.44Z"/><rect class="cls-2" x="161.1" y="124.05" width="8.79" height="0.39"/><path class="cls-2" d="M200.68,76.22h-12V59.72h12ZM188.93,76h11.49V60H188.93Z"/><rect class="cls-1" x="190.41" y="61.71" width="8.6" height="11.56"/><path class="cls-2" d="M199.14,73.4h-8.86V61.59h8.86Zm-8.6-.26h8.35V61.84h-8.35Z"/><path class="cls-2" d="M199.68,74.84h-10v-1.7h10Zm-9.76-.26h9.5V73.4h-9.5Z"/><rect class="cls-2" x="193.72" y="58.92" width="1.93" height="2.57"/><path class="cls-2" d="M195.77,61.62h-2.18V58.79h2.18Zm-1.93-.26h1.67V59h-1.67Z"/><rect class="cls-2" x="187.32" y="82.81" width="14.72" height="0.26"/><rect class="cls-2" x="188" y="83.84" width="13.35" height="0.26"/><rect class="cls-2" x="188" y="102.5" width="13.35" height="0.26"/><rect class="cls-2" x="188.61" y="103.7" width="12.13" height="0.26"/><rect class="cls-2" x="188.68" y="83.88" width="0.26" height="18.75"/><rect class="cls-2" x="190.28" y="83.97" width="0.26" height="18.66"/><rect class="cls-2" x="198.88" y="83.97" width="0.26" height="18.66"/><rect class="cls-2" x="200.42" y="83.97" width="0.26" height="18.66"/><rect class="cls-2" x="190.38" y="86.84" width="8.6" height="0.26"/><rect class="cls-1" x="190.02" y="114.1" width="7.58" height="9.31"/><path class="cls-2" d="M197.79,123.6h-8v-9.69h8Zm-7.58-.39h7.19v-8.92h-7.19Z"/><path class="cls-2" d="M194.87,114.29h-2.21v-3.08h2.21Zm-1.83-.39h1.44v-2.31H193Z"/><rect class="cls-2" x="189.51" y="124.05" width="8.79" height="0.39"/><path class="cls-2" d="M223.93,76.22h-12V59.72h12ZM212.18,76h11.49V60H212.18Z"/><rect class="cls-1" x="213.66" y="61.71" width="8.6" height="11.56"/><path class="cls-2" d="M222.39,73.4h-8.86V61.59h8.86Zm-8.6-.26h8.35V61.84h-8.35Z"/><path class="cls-2" d="M222.93,74.84h-10v-1.7h10Zm-9.76-.26h9.5V73.4h-9.5Z"/><rect class="cls-2" x="216.96" y="58.92" width="1.93" height="2.57"/><path class="cls-2" d="M219,61.62h-2.18V58.79H219Zm-1.93-.26h1.67V59h-1.67Z"/><rect class="cls-2" x="210.57" y="82.81" width="14.72" height="0.26"/><rect class="cls-2" x="211.25" y="83.84" width="13.35" height="0.26"/><rect class="cls-2" x="211.25" y="102.44" width="13.35" height="0.39"/><rect class="cls-2" x="211.86" y="103.7" width="12.13" height="0.26"/><rect class="cls-2" x="211.93" y="83.88" width="0.26" height="18.75"/><rect class="cls-2" x="213.53" y="83.97" width="0.26" height="18.66"/><rect class="cls-2" x="222.13" y="83.97" width="0.26" height="18.66"/><rect class="cls-2" x="223.67" y="83.97" width="0.26" height="18.66"/><rect class="cls-2" x="213.63" y="86.84" width="8.6" height="0.26"/><rect class="cls-1" x="213.27" y="114.1" width="7.58" height="9.31"/><path class="cls-2" d="M221,123.6h-8v-9.69h8Zm-7.58-.39h7.19v-8.92h-7.19Z"/><path class="cls-2" d="M218.12,114.29h-2.21v-3.08h2.21Zm-1.83-.39h1.44v-2.31h-1.44Z"/><rect class="cls-2" x="212.76" y="124.05" width="8.79" height="0.39"/><rect class="cls-2" x="140.85" y="125.87" width="89.36" height="0.77"/><path class="cls-2" d="M237.49,61.62a1.09,1.09,0,1,1,1.09-1.09A1.09,1.09,0,0,1,237.49,61.62Zm0-1.92a.83.83,0,1,0,.83.83A.83.83,0,0,0,237.49,59.7Z"/><path class="cls-2" d="M242.22,61.62a1.09,1.09,0,1,1,1.09-1.09A1.09,1.09,0,0,1,242.22,61.62Zm0-1.92a.83.83,0,1,0,.83.83A.83.83,0,0,0,242.22,59.7Z"/><path class="cls-2" d="M244.59,61.62a1.09,1.09,0,1,1,1.09-1.09A1.09,1.09,0,0,1,244.59,61.62Zm0-1.92a.83.83,0,1,0,.83.83A.83.83,0,0,0,244.59,59.7Z"/><path class="cls-2" d="M249.33,61.62a1.09,1.09,0,1,1,1.09-1.09A1.09,1.09,0,0,1,249.33,61.62Zm0-1.92a.83.83,0,1,0,.83.83A.83.83,0,0,0,249.33,59.7Z"/><rect class="cls-2" x="237.49" y="59.45" width="4.74" height="0.26"/><rect class="cls-2" x="244.59" y="59.45" width="4.74" height="0.26"/><rect class="cls-2" x="238.44" y="60.69" width="2.82" height="0.26"/><rect class="cls-2" x="245.55" y="60.69" width="2.82" height="0.26"/><polygon class="cls-2" points="236.31 118.4 236.05 118.4 236.23 111.17 235.63 110.52 235.63 108.8 236.46 108.8 236.44 107.64 237.05 106.71 237.05 61.44 237.31 61.44 237.31 106.79 236.69 107.72 236.72 109.06 235.89 109.06 235.89 110.42 236.49 111.08 236.31 118.4"/><polygon class="cls-2" points="243.69 109.06 242.73 109.06 242.73 107.71 242.31 106.75 242.31 61.44 242.57 61.44 242.57 106.72 242.99 107.68 242.99 108.8 243.69 108.8 243.69 109.06"/><rect class="cls-2" x="244.16" y="61.44" width="0.26" height="41.49"/><rect class="cls-2" x="249.42" y="61.44" width="0.26" height="41.49"/><polygon class="cls-3" points="230.3 126.04 229.53 126 230.32 111.02 229.82 111.02 229.82 108.38 230.22 108.38 230.22 107.54 230.98 106.61 230.98 59.67 229.97 57.73 231.3 57.73 231.3 56.36 229.14 56.36 229.14 54.61 229.91 54.61 229.91 55.59 232.07 55.59 232.07 58.5 231.24 58.5 231.75 59.48 231.75 106.88 230.99 107.81 230.99 109.16 230.6 109.16 230.6 110.25 231.13 110.25 230.3 126.04"/><polygon class="cls-2" points="234.76 119.07 234.37 119.06 234.55 110.91 234.13 110.35 234.13 108.95 234.81 108.48 234.81 59.55 233.77 57.93 234.81 57.93 234.81 55.04 235.2 55.04 235.2 58.31 234.48 58.31 235.2 59.43 235.2 108.68 234.51 109.15 234.51 110.22 234.94 110.78 234.76 119.07"/><polygon class="cls-3" points="259.19 76.3 257.2 76.3 257.2 59.55 263.33 59.55 263.33 60.06 257.72 60.06 257.72 75.79 259.19 75.79 259.19 76.3"/><path class="cls-3" d="M255.14,92.49h-.39a8.6,8.6,0,0,1,8.59-8.59v.39A8.22,8.22,0,0,0,255.14,92.49Z"/><rect class="cls-2" x="236.57" y="107.55" width="6.29" height="0.26"/><rect class="cls-2" x="230.21" y="108.8" width="13.29" height="0.26"/><rect class="cls-2" x="230.21" y="110.34" width="13.48" height="0.26"/><path class="cls-2" d="M252,86a1,1,0,1,1,1-1A1,1,0,0,1,252,86Zm0-1.67a.64.64,0,1,0,.64.64A.64.64,0,0,0,252,84.28Z"/><path class="cls-2" d="M254.65,86a1,1,0,1,1,1-1A1,1,0,0,1,254.65,86Zm0-1.67a.64.64,0,1,0,.64.64A.64.64,0,0,0,254.65,84.28Z"/><rect class="cls-2" x="251.61" y="85.7" width="0.26" height="22.43"/><rect class="cls-3" x="254.75" y="85.7" width="0.39" height="22.43"/><path class="cls-2" d="M250.14,111h-6.58V102.8h6.58Zm-6.32-.26h6.07v-7.64h-6.07Z"/><rect class="cls-2" x="237.18" y="106.75" width="5.26" height="0.26"/><rect class="cls-2" x="230.61" y="107.55" width="4.4" height="0.26"/><rect class="cls-2" x="231.22" y="106.75" width="3.78" height="0.26"/><path class="cls-3" d="M237.83,120.09h-5.47a.26.26,0,0,1,0-.51c4.47,0,11.06-8.82,11.12-8.91a.26.26,0,0,1,.21-.1H250a.26.26,0,0,1,.21.4,24.37,24.37,0,0,1-12.33,9.11Zm-3.29-.51h3.25a23.89,23.89,0,0,0,11.72-8.5h-5.7C243.14,112,238.64,117.8,234.54,119.58Z"/><path class="cls-3" d="M238,126.78H232.1v-7.2H238Zm-5.39-.51h4.88v-6.17h-4.88Z"/><line class="cls-2" x1="250.02" y1="108.13" x2="263.34" y2="108.13"/><rect class="cls-3" x="250.02" y="109.12" width="13.32" height="0.26"/><rect class="cls-3" x="250.02" y="108" width="13.32" height="0.26"/><rect class="cls-3" x="250.02" y="111.38" width="13.32" height="0.26"/><rect class="cls-3" x="250.02" y="110.25" width="13.32" height="0.26"/><rect class="cls-3" x="250.02" y="112.5" width="13.32" height="0.26"/><rect class="cls-3" x="250.02" y="113.63" width="13.32" height="0.26"/><rect class="cls-3" x="249.21" y="115.88" width="14.12" height="0.26"/><rect class="cls-3" x="249.54" y="114.75" width="13.79" height="0.26"/><rect class="cls-3" x="248.63" y="117" width="14.7" height="0.26"/><rect class="cls-3" x="246.85" y="119.25" width="16.48" height="0.26"/><rect class="cls-3" x="247.77" y="118.13" width="15.57" height="0.26"/><rect class="cls-3" x="245.62" y="120.38" width="17.72" height="0.26"/><rect class="cls-3" x="244.29" y="121.51" width="19.05" height="0.26"/><rect class="cls-3" x="240.35" y="123.76" width="22.98" height="0.26"/><rect class="cls-3" x="240.35" y="124.88" width="22.98" height="0.26"/><rect class="cls-3" x="242.44" y="122.63" width="20.9" height="0.26"/><rect class="cls-2" x="154.17" y="29.51" width="0.51" height="2.55" transform="translate(9.62 92.64) rotate(-34.4)"/><polygon class="cls-2" points="373.22 29.87 263.37 29.87 263.37 29.36 371.52 29.36 351.81 16.22 336.97 4.45 294.35 4.45 294.35 3.94 337.15 3.94 352.12 15.8 373.22 29.87"/><polygon class="cls-2" points="344 50.93 295.33 50.93 295.33 44.12 280.44 44.12 280.44 43.61 295.85 43.61 295.85 50.41 343.48 50.41 343.48 42.84 348.36 42.84 348.36 39.89 381.14 39.89 371.38 32.05 263.37 32.05 263.37 31.54 371.56 31.54 382.6 40.4 348.88 40.4 348.88 43.35 344 43.35 344 50.93"/><polygon class="cls-2" points="336.98 47.16 327.13 47.16 327.13 38.48 327.65 38.48 327.65 46.65 336.46 46.65 336.46 38.48 336.98 38.48 336.98 47.16"/><path class="cls-2" d="M337,38.47h-.51a4.41,4.41,0,1,0-8.82,0h-.51a4.92,4.92,0,0,1,9.84,0Z"/><path class="cls-1" d="M329,39.84a3,3,0,0,1,6,0v5.4h-6v-5.4"/><path class="cls-2" d="M335.2,45.42h-6.36V39.83a3.18,3.18,0,0,1,6.36,0Zm-6-.39h5.59v-5.2a2.79,2.79,0,0,0-5.59,0Z"/><polygon class="cls-2" points="313.69 47.16 303.85 47.16 303.85 38.48 304.37 38.48 304.37 46.65 313.18 46.65 313.18 38.48 313.69 38.48 313.69 47.16"/><path class="cls-2" d="M313.7,38.47h-.51a4.41,4.41,0,1,0-8.82,0h-.51a4.92,4.92,0,0,1,9.84,0Z"/><path class="cls-1" d="M305.76,39.84a3,3,0,0,1,6,0v5.4h-6v-5.4"/><path class="cls-2" d="M311.92,45.42h-6.36V39.83a3.18,3.18,0,1,1,6.36,0Zm-6-.39h5.59v-5.2a2.79,2.79,0,1,0-5.59,0Z"/><path class="cls-2" d="M294.86,12.41H288V0h6.85Zm-5.82-1h4.79V1H289Z"/><path class="cls-2" d="M388.55,43.18H348.49V40h40.06Zm-39.8-.26h39.54V40.27H348.75Z"/><path class="cls-2" d="M393.64,50.93H343.48V43.87h50.16ZM344,50.42h49.13v-6H344Z"/><path class="cls-2" d="M396.38,54.87H340.74V52.21h55.64Zm-55.12-.51h54.61V52.73H341.26Z"/><path class="cls-2" d="M299.23,54.87h-6.91V52.21h6.91Zm-6.4-.51h5.88V52.73h-5.88Z"/><path class="cls-2" d="M341.25,54.74h-42.4v-2.4h42.4Zm-42.14-.26H341V52.6H299.1Z"/><path class="cls-2" d="M392.27,58.38H344.34V55.72h47.93Zm-47.42-.51h46.91V56.24H344.85Z"/><path class="cls-2" d="M344.72,58.25H297v-2.4h47.68ZM297.3,58h47.16V56.11H297.3Z"/><path class="cls-2" d="M289.78,58.38H276.9V55.72h12.88Zm-12.36-.51h11.85V56.24H277.41Z"/><polygon class="cls-3" points="385.47 126.99 385.47 80.2 386.24 80.2 386.24 125.51 394.87 119.47 392.31 79.97 392.31 59.49 393.08 59.49 393.08 79.94 395.67 119.85 385.47 126.99"/><polygon class="cls-3" points="352.6 126.64 340.33 126.64 343.7 80.17 343.7 59.49 344.47 59.49 344.47 80.2 341.16 125.87 351.83 125.87 351.83 80.2 352.6 80.2 352.6 126.64"/><path class="cls-2" d="M386,110.76h-33.9v-2.12H386Zm-33.64-.26h33.38v-1.6H352.34Z"/><path class="cls-2" d="M341.61,110.76H296.36v-2.12h45.25Zm-45-.26h44.73v-1.6H296.62Z"/><path class="cls-2" d="M383.93,76.35H371.66V59.6h12.26Zm-11.75-.51h11.23V60.11H372.18Z"/><rect class="cls-1" x="373.46" y="61.71" width="8.6" height="11.56" transform="translate(755.53 134.98) rotate(-180)"/><path class="cls-2" d="M382.26,73.46h-9V61.52h9Zm-8.6-.39h8.22V61.91h-8.22Z"/><path class="cls-2" d="M382.87,74.91H372.73V73.08h10.14Zm-9.76-.39h9.37V73.46h-9.37Z"/><rect class="cls-2" x="376.83" y="58.92" width="1.93" height="2.57" transform="translate(755.59 120.41) rotate(-180)"/><path class="cls-2" d="M379,61.68h-2.31v-3H379ZM377,61.3h1.54V59.11H377Z"/><rect class="cls-2" x="370.43" y="82.75" width="14.72" height="0.39"/><rect class="cls-2" x="371.12" y="83.78" width="13.35" height="0.39"/><rect class="cls-2" x="371.12" y="102.44" width="13.35" height="0.39"/><rect class="cls-2" x="371.73" y="103.63" width="12.13" height="0.39"/><rect class="cls-2" x="383.48" y="83.88" width="0.39" height="18.75"/><rect class="cls-2" x="381.87" y="83.97" width="0.39" height="18.66"/><rect class="cls-2" x="373.27" y="83.97" width="0.39" height="18.66"/><rect class="cls-2" x="371.73" y="83.97" width="0.39" height="18.66"/><rect class="cls-2" x="373.49" y="86.77" width="8.6" height="0.39"/><rect class="cls-1" x="374.87" y="114.1" width="7.58" height="9.31" transform="translate(757.32 237.5) rotate(-180)"/><path class="cls-2" d="M382.64,123.6h-8v-9.69h8Zm-7.58-.39h7.19v-8.92h-7.19Z"/><path class="cls-2" d="M379.82,114.29H377.6v-3.08h2.21Zm-1.83-.39h1.44v-2.31H378Z"/><rect class="cls-2" x="374.17" y="124.05" width="8.79" height="0.39"/><path class="cls-2" d="M366.56,76.35H354.3V59.6h12.26Zm-11.75-.51H366V60.11H354.81Z"/><rect class="cls-1" x="356.1" y="61.71" width="8.6" height="11.56" transform="translate(720.8 134.98) rotate(-180)"/><path class="cls-2" d="M364.89,73.46h-9V61.52h9Zm-8.6-.39h8.22V61.91h-8.22Z"/><path class="cls-2" d="M365.51,74.91H355.36V73.08h10.14Zm-9.76-.39h9.37V73.46h-9.37Z"/><rect class="cls-2" x="359.47" y="58.92" width="1.93" height="2.57" transform="translate(720.86 120.41) rotate(-180)"/><path class="cls-2" d="M361.59,61.68h-2.31v-3h2.31Zm-1.93-.39h1.54V59.11h-1.54Z"/><rect class="cls-2" x="353.07" y="82.75" width="14.72" height="0.39"/><rect class="cls-2" x="353.75" y="83.78" width="13.35" height="0.39"/><rect class="cls-2" x="353.75" y="102.44" width="13.35" height="0.39"/><rect class="cls-2" x="354.36" y="103.63" width="12.13" height="0.39"/><rect class="cls-2" x="366.11" y="83.88" width="0.39" height="18.75"/><rect class="cls-2" x="364.51" y="83.97" width="0.39" height="18.66"/><rect class="cls-2" x="355.9" y="83.97" width="0.39" height="18.66"/><rect class="cls-2" x="354.36" y="83.97" width="0.39" height="18.66"/><rect class="cls-2" x="356.13" y="86.77" width="8.6" height="0.39"/><rect class="cls-1" x="357.51" y="114.1" width="7.58" height="9.31" transform="translate(722.59 237.5) rotate(-180)"/><path class="cls-2" d="M365.28,123.6h-8v-9.69h8Zm-7.58-.39h7.19v-8.92H357.7Z"/><path class="cls-2" d="M362.45,114.29h-2.21v-3.08h2.21Zm-1.83-.39h1.44v-2.31h-1.44Z"/><rect class="cls-2" x="356.8" y="124.05" width="8.79" height="0.39"/><path class="cls-2" d="M338,76.22H326V59.72h12ZM326.28,76h11.49V60H326.28Z"/><rect class="cls-1" x="327.69" y="61.71" width="8.6" height="11.56" transform="translate(663.98 134.98) rotate(-180)"/><path class="cls-2" d="M336.42,73.4h-8.86V61.59h8.86Zm-8.6-.26h8.35V61.84h-8.35Z"/><path class="cls-2" d="M337,74.84H327v-1.7h10Zm-9.76-.26h9.5V73.4h-9.5Z"/><rect class="cls-2" x="331.06" y="58.92" width="1.93" height="2.57" transform="translate(664.05 120.41) rotate(-180)"/><path class="cls-2" d="M333.11,61.62h-2.18V58.79h2.18Zm-1.93-.26h1.67V59h-1.67Z"/><rect class="cls-2" x="324.66" y="82.81" width="14.72" height="0.26"/><rect class="cls-2" x="325.35" y="83.84" width="13.35" height="0.26"/><rect class="cls-2" x="325.35" y="102.5" width="13.35" height="0.26"/><rect class="cls-2" x="325.96" y="103.7" width="12.13" height="0.26"/><rect class="cls-2" x="337.77" y="83.88" width="0.26" height="18.75"/><rect class="cls-2" x="336.16" y="83.97" width="0.26" height="18.66"/><rect class="cls-2" x="327.56" y="83.97" width="0.26" height="18.66"/><rect class="cls-2" x="326.02" y="83.97" width="0.26" height="18.66"/><rect class="cls-2" x="327.72" y="86.84" width="8.6" height="0.26"/><rect class="cls-1" x="329.1" y="114.1" width="7.58" height="9.31" transform="translate(665.78 237.5) rotate(-180)"/><path class="cls-2" d="M336.87,123.6h-8v-9.69h8Zm-7.58-.39h7.19v-8.92H329.3Z"/><path class="cls-2" d="M334,114.29h-2.21v-3.08H334Zm-1.83-.39h1.44v-2.31h-1.44Z"/><rect class="cls-2" x="328.4" y="124.05" width="8.79" height="0.39"/><path class="cls-2" d="M314.78,76.22h-12V59.72h12ZM303,76h11.49V60H303Z"/><rect class="cls-1" x="304.44" y="61.71" width="8.6" height="11.56" transform="translate(617.48 134.98) rotate(-180)"/><path class="cls-2" d="M313.17,73.4h-8.86V61.59h8.86Zm-8.6-.26h8.35V61.84h-8.35Z"/><path class="cls-2" d="M313.79,74.84h-10v-1.7h10ZM304,74.59h9.5V73.4H304Z"/><rect class="cls-2" x="307.81" y="58.92" width="1.93" height="2.57" transform="translate(617.55 120.41) rotate(-180)"/><path class="cls-2" d="M309.87,61.62h-2.18V58.79h2.18Zm-1.93-.26h1.67V59h-1.67Z"/><rect class="cls-2" x="301.41" y="82.81" width="14.72" height="0.26"/><rect class="cls-2" x="302.1" y="83.84" width="13.35" height="0.26"/><rect class="cls-2" x="302.1" y="102.44" width="13.35" height="0.39"/><rect class="cls-2" x="302.71" y="103.7" width="12.13" height="0.26"/><rect class="cls-2" x="314.52" y="83.88" width="0.26" height="18.75"/><rect class="cls-2" x="312.91" y="83.97" width="0.26" height="18.66"/><rect class="cls-2" x="304.31" y="83.97" width="0.26" height="18.66"/><rect class="cls-2" x="302.77" y="83.97" width="0.26" height="18.66"/><rect class="cls-2" x="304.47" y="86.84" width="8.6" height="0.26"/><rect class="cls-1" x="305.85" y="114.1" width="7.58" height="9.31" transform="translate(619.28 237.5) rotate(-180)"/><path class="cls-2" d="M313.62,123.6h-8v-9.69h8Zm-7.58-.39h7.19v-8.92H306Z"/><path class="cls-2" d="M310.8,114.29h-2.21v-3.08h2.21Zm-1.83-.39h1.44v-2.31H309Z"/><rect class="cls-2" x="305.15" y="124.05" width="8.79" height="0.39"/><rect class="cls-2" x="296.49" y="125.87" width="89.36" height="0.77"/><polygon class="cls-3" points="289.08 53.18 274.3 53.18 274.3 52.66 288.57 52.66 288.57 52.45 263.35 37.48 238.13 52.45 238.13 52.66 252.4 52.66 252.4 53.18 237.62 53.18 237.62 52.16 263.26 36.93 263.41 36.93 263.5 36.97 289.08 52.16 289.08 53.18"/><polygon class="cls-3" points="292.96 54.99 274.21 54.99 274.21 54.22 292.19 54.22 292.19 51.53 263.35 34.74 234.51 51.53 234.51 54.22 252.49 54.22 252.49 54.99 233.74 54.99 233.74 51.09 263.23 33.92 263.44 33.92 263.56 33.97 292.96 51.09 292.96 54.99"/><path class="cls-2" d="M270,48.4h-6.59V48h6.2a6.22,6.22,0,0,0-12.44,0h6.2v.39h-6.59v-.19a6.61,6.61,0,0,1,13.21,0Z"/><path class="cls-1" d="M263.37,48.21h6.4a6.4,6.4,0,0,0-6.4-6.4h0a6.4,6.4,0,0,0-6.4,6.4h6.4"/><path class="cls-2" d="M289.22,61.62a1.09,1.09,0,1,1,1.09-1.09A1.09,1.09,0,0,1,289.22,61.62Zm0-1.92a.83.83,0,1,0,.83.83A.83.83,0,0,0,289.22,59.7Z"/><path class="cls-2" d="M284.48,61.62a1.09,1.09,0,1,1,1.09-1.09A1.09,1.09,0,0,1,284.48,61.62Zm0-1.92a.83.83,0,1,0,.83.83A.83.83,0,0,0,284.48,59.7Z"/><path class="cls-2" d="M282.11,61.62a1.09,1.09,0,1,1,1.09-1.09A1.09,1.09,0,0,1,282.11,61.62Zm0-1.92a.83.83,0,1,0,.83.83A.83.83,0,0,0,282.11,59.7Z"/><path class="cls-2" d="M277.38,61.62a1.09,1.09,0,1,1,1.09-1.09A1.09,1.09,0,0,1,277.38,61.62Zm0-1.92a.83.83,0,1,0,.83.83A.83.83,0,0,0,277.38,59.7Z"/><rect class="cls-2" x="284.48" y="59.45" width="4.74" height="0.26"/><rect class="cls-2" x="277.38" y="59.45" width="4.74" height="0.26"/><rect class="cls-2" x="285.44" y="60.69" width="2.82" height="0.26"/><rect class="cls-2" x="278.33" y="60.69" width="2.82" height="0.26"/><polygon class="cls-2" points="290.39 118.4 290.21 111.08 290.81 110.42 290.81 109.06 289.98 109.06 290.01 107.72 289.39 106.79 289.39 61.44 289.65 61.44 289.65 106.71 290.26 107.64 290.24 108.8 291.07 108.8 291.07 110.52 290.47 111.17 290.65 118.4 290.39 118.4"/><polygon class="cls-2" points="283.97 109.06 283.01 109.06 283.01 108.8 283.72 108.8 283.73 107.63 284.13 106.72 284.13 61.44 284.39 61.44 284.39 106.78 283.97 107.71 283.97 109.06"/><rect class="cls-2" x="282.29" y="61.44" width="0.26" height="41.49"/><rect class="cls-2" x="277.03" y="61.44" width="0.26" height="41.49"/><polygon class="cls-3" points="296.41 126.04 295.57 110.25 296.11 110.25 296.1 109.16 295.71 109.16 295.71 107.81 294.95 106.89 294.95 59.48 295.46 58.5 294.63 58.5 294.63 55.59 296.79 55.59 296.79 54.61 297.56 54.61 297.56 56.36 295.4 56.36 295.4 57.73 296.73 57.73 295.72 59.67 295.72 106.61 296.48 107.54 296.49 108.38 296.88 108.38 296.88 111.02 296.38 111.02 297.18 126 296.41 126.04"/><polygon class="cls-2" points="291.94 119.07 291.76 110.78 292.19 110.22 292.19 109.15 291.5 108.68 291.5 59.43 292.22 58.31 291.5 58.31 291.5 55.04 291.89 55.04 291.89 57.93 292.93 57.93 291.89 59.55 291.89 108.48 292.57 108.95 292.57 110.35 292.15 110.91 292.33 119.06 291.94 119.07"/><polygon class="cls-3" points="269.5 76.3 267.51 76.3 267.51 75.79 268.98 75.79 268.98 60.06 263.37 60.06 263.37 59.55 269.5 59.55 269.5 76.3"/><polyline class="cls-1" points="267.63 73.22 267.63 61.67 263.37 61.67 263.34 61.67 259.07 61.67 259.07 73.22"/><polygon class="cls-2" points="267.83 73.22 267.44 73.22 267.44 61.86 259.26 61.86 259.26 73.22 258.87 73.22 258.87 61.47 267.83 61.47 267.83 73.22"/><path class="cls-2" d="M268.44,74.86H258.26V73h10.18Zm-9.8-.39h9.41V73.41h-9.41Z"/><polyline class="cls-3" points="263.37 61.44 264.33 61.44 264.33 58.87 263.37 58.87 263.33 58.87 262.37 58.87 262.37 61.44 263.33 61.44"/><polygon class="cls-3" points="264.52 61.63 263.37 61.63 263.37 61.25 264.14 61.25 264.14 59.07 262.56 59.07 262.56 61.25 263.33 61.25 263.33 61.63 262.18 61.63 262.18 58.68 264.52 58.68 264.52 61.63"/><path class="cls-2" d="M277.35,81.34h-28V79.66a7.17,7.17,0,0,1,7.16-7.16h.19l0,.19v1.94l-.14,0a2,2,0,0,0-1.42,1.87v.91a1.94,1.94,0,1,0,3.88,0V74.67h.39v2.79a2.33,2.33,0,1,1-4.65,0v-.91a2.34,2.34,0,0,1,1.56-2.2V72.89a6.79,6.79,0,0,0-6.62,6.77V81H277V79.66a6.78,6.78,0,0,0-6.62-6.77v1.46a2.34,2.34,0,0,1,1.56,2.2v.91a2.33,2.33,0,0,1-4.65,0V74.67h.39v2.79a1.94,1.94,0,0,0,3.88,0v-.91a2,2,0,0,0-1.42-1.87l-.14,0V72.5h.19a7.17,7.17,0,0,1,7.19,7.16Z"/><path class="cls-3" d="M271.95,92.49h-.39a8.22,8.22,0,0,0-8.21-8.21V83.9A8.6,8.6,0,0,1,271.95,92.49Z"/><path class="cls-1" d="M270.26,108.13V92.49a6.92,6.92,0,0,0-6.92-6.92h0a6.92,6.92,0,0,0-6.92,6.92v15.64"/><path class="cls-2" d="M270.39,108.13h-.26V92.49a6.78,6.78,0,1,0-13.57,0v15.64h-.26V92.49a7.05,7.05,0,0,1,7-7h0a7.05,7.05,0,0,1,7,7Z"/><rect class="cls-2" x="283.84" y="107.55" width="6.29" height="0.26"/><rect class="cls-2" x="283.2" y="108.8" width="13.29" height="0.26"/><rect class="cls-2" x="283.01" y="110.34" width="13.48" height="0.26"/><polygon class="cls-3" points="275.02 84.16 263.35 84.16 263.35 83.78 274.82 83.78 275.31 83.14 251.4 83.14 251.88 83.78 263.35 83.78 263.35 84.16 251.68 84.16 250.63 82.75 276.08 82.75 275.02 84.16"/><path class="cls-2" d="M274.66,86a1,1,0,1,1,1-1A1,1,0,0,1,274.66,86Zm0-1.67a.64.64,0,1,0,.64.64A.64.64,0,0,0,274.66,84.28Z"/><path class="cls-2" d="M272,86a1,1,0,1,1,1-1A1,1,0,0,1,272,86Zm0-1.67a.64.64,0,1,0,.64.64A.64.64,0,0,0,272,84.28Z"/><rect class="cls-2" x="274.84" y="85.7" width="0.26" height="22.43"/><rect class="cls-3" x="271.56" y="85.7" width="0.39" height="22.43"/><path class="cls-2" d="M283.14,111h-6.58V102.8h6.58Zm-6.32-.26h6.07v-7.64h-6.07Z"/><rect class="cls-2" x="284.26" y="106.75" width="5.26" height="0.26"/><rect class="cls-2" x="291.7" y="107.55" width="4.4" height="0.26"/><rect class="cls-2" x="291.7" y="106.75" width="3.78" height="0.26"/><path class="cls-3" d="M294.34,120.09h-5.53A24.37,24.37,0,0,1,276.48,111a.26.26,0,0,1,.21-.4H283a.26.26,0,0,1,.21.1c.07.09,6.66,8.91,11.12,8.91a.26.26,0,1,1,0,.51Zm-5.43-.51h3.25c-4.1-1.78-8.6-7.6-9.28-8.5h-5.7A23.89,23.89,0,0,0,288.91,119.58Z"/><path class="cls-3" d="M294.6,126.78h-5.91v-7.2h5.91Zm-5.39-.51h4.88v-6.17H289.2Z"/><line class="cls-2" x1="276.69" y1="108.13" x2="263.37" y2="108.13"/><rect class="cls-3" x="263.37" y="109.12" width="13.32" height="0.26"/><rect class="cls-3" x="263.37" y="108" width="13.32" height="0.26"/><rect class="cls-3" x="263.37" y="111.38" width="13.32" height="0.26"/><rect class="cls-3" x="263.37" y="110.25" width="13.32" height="0.26"/><rect class="cls-3" x="263.37" y="112.5" width="13.32" height="0.26"/><rect class="cls-3" x="263.37" y="113.63" width="13.32" height="0.26"/><rect class="cls-3" x="263.37" y="115.88" width="14.12" height="0.26"/><rect class="cls-3" x="263.37" y="114.75" width="13.79" height="0.26"/><rect class="cls-3" x="263.37" y="117" width="14.7" height="0.26"/><rect class="cls-3" x="263.37" y="119.25" width="16.48" height="0.26"/><rect class="cls-3" x="263.37" y="118.13" width="15.57" height="0.26"/><rect class="cls-3" x="263.37" y="120.38" width="17.72" height="0.26"/><rect class="cls-3" x="263.37" y="121.51" width="19.05" height="0.26"/><rect class="cls-3" x="263.37" y="123.76" width="22.98" height="0.26"/><rect class="cls-3" x="263.37" y="124.88" width="22.98" height="0.26"/><rect class="cls-3" x="263.37" y="122.63" width="20.9" height="0.26"/><rect class="cls-2" x="371" y="30.53" width="2.55" height="0.51" transform="translate(136.57 320.58) rotate(-55.6)"/><rect class="cls-2" x="238.17" y="3.94" width="50.36" height="0.51"/><rect class="cls-1" x="144.61" y="86.96" width="8.63" height="15.66"/><rect class="cls-1" x="161.99" y="86.96" width="8.63" height="15.66"/><path class="cls-2" d="M153.43,102.82h-9v-16h9Zm-8.63-.39H153V87.16H144.8Z"/><path class="cls-2" d="M170.81,102.82h-9v-16h9Zm-8.63-.39h8.25V87.16h-8.25Z"/><path class="cls-3" d="M13.91,181.72A9.93,9.93,0,0,0,14.1,184a2,2,0,0,0,.69,1.11,2.46,2.46,0,0,0,1.16.54,11.92,11.92,0,0,0,2.1.13h1.17v.84H0v-.84H1.17a12.18,12.18,0,0,0,2.13-.13,2.46,2.46,0,0,0,1.16-.54A2,2,0,0,0,5.15,184a10,10,0,0,0,.18-2.26V167.2a10,10,0,0,0-.18-2.26,2,2,0,0,0-.69-1.12,2.82,2.82,0,0,0-1.16-.52,10.85,10.85,0,0,0-2.13-.15H0v-.84H21.52q1.54,0,2.73.08t2.16.25a10.42,10.42,0,0,1,1.76.45,9.56,9.56,0,0,1,1.49.69,5.92,5.92,0,0,1,1.31,1,7.19,7.19,0,0,1,1,1.36,6.66,6.66,0,0,1,.67,1.56,5.92,5.92,0,0,1,.23,1.63,6,6,0,0,1-.23,1.66,6.63,6.63,0,0,1-.67,1.56,7.16,7.16,0,0,1-1,1.36,5.94,5.94,0,0,1-1.31,1,9.27,9.27,0,0,1-1.51.69,10.8,10.8,0,0,1-1.78.45,21.46,21.46,0,0,1-2.16.25q-1.19.08-2.7.08H13.91Zm-2.68-17.4a5.48,5.48,0,0,1,.23-.57,4.57,4.57,0,0,1,.4-.6H5c.25.22.42.4.54.52a2.47,2.47,0,0,1,.37.65ZM5.93,184.6a3.73,3.73,0,0,1-.35.64,3.67,3.67,0,0,1-.55.54h6.84a4.18,4.18,0,0,1-.4-.55,3.63,3.63,0,0,1-.23-.62Zm.2-19.68q.1.54.13.8a6.74,6.74,0,0,1,0,.77h4.83v-1.14a3,3,0,0,1,0-.44Zm.17,17.5c0,.38,0,.65-.05.82a6.48,6.48,0,0,1-.12.75h5a2.81,2.81,0,0,1,0-.4v-1.17Zm0-15.32v1.61h4.83V167.1Zm0,2.21v1.58h4.83v-1.58Zm0,2.18v1.58h4.83v-1.58Zm0,2.18v1.58h4.83v-1.58Zm0,2.18v1.58h4.83v-1.58Zm0,2.21v1.58h4.83v-1.58Zm0,2.18v1.58h4.83v-1.58Zm12.87-4.63a4.49,4.49,0,0,0,3.75-1.53,9.74,9.74,0,0,0,0-9.42,4.51,4.51,0,0,0-3.74-1.53H17.9a7.67,7.67,0,0,0-1.93.2,2.66,2.66,0,0,0-1.22.67,2.56,2.56,0,0,0-.65,1.26,8.94,8.94,0,0,0-.18,2v8.35ZM27,164.32a6.25,6.25,0,0,0-2.06-.94,10.11,10.11,0,0,0-2.6-.23,2.43,2.43,0,0,1,.65.39,7.22,7.22,0,0,1,.72.79Zm-2.78,9.35a5.34,5.34,0,0,1-.84,1.11,6.31,6.31,0,0,1-1,.84,8.57,8.57,0,0,0,3.15-.4A7,7,0,0,0,28,173.67Zm-.07-8.75a7.72,7.72,0,0,1,.4.79,7.21,7.21,0,0,1,.27.79h4.26a7.69,7.69,0,0,0-.54-.82,5.15,5.15,0,0,0-.74-.75Zm.8,6.57q-.1.57-.18.89a4.34,4.34,0,0,1-.25.69h4a5.29,5.29,0,0,0,.49-.69,5.51,5.51,0,0,0,.39-.89Zm0-4.39q.07.47.1.77t.07.84H29.7q-.07-.54-.13-.87a6.39,6.39,0,0,0-.2-.74Zm.2,2.21q0,.67,0,.94c0,.18,0,.39-.05.64H29.6q.07-.47.1-.79a7.84,7.84,0,0,0,0-.79Z"/><path class="cls-3" d="M39,179.87a4,4,0,0,0-.18.65,3.83,3.83,0,0,0-.05.65,4.74,4.74,0,0,0,.69,2.46,3.84,3.84,0,0,0,1.76,1.63,4.31,4.31,0,0,0,1.09.33,17,17,0,0,0,1.73.17v.84H30.71v-.84a5.76,5.76,0,0,0,3.59-1.59,18,18,0,0,0,3.52-4.64l10.09-17.9h.87L60.18,182a15.29,15.29,0,0,0,1.21,1.88A5.82,5.82,0,0,0,62.56,185a3.67,3.67,0,0,0,1.32.6,7.56,7.56,0,0,0,1.69.17h.5v.84H46.9v-.84h1.88a2.83,2.83,0,0,0,1.68-.45,1.43,1.43,0,0,0,.64-1.22,1.85,1.85,0,0,0-.12-.6c-.08-.22-.17-.46-.28-.7l-1.61-2.92Zm-3.89,4.73q-.57.47-.87.69t-.77.49h4.16q-.2-.34-.32-.57a3.28,3.28,0,0,1-.22-.6Zm1.84-.6a.76.76,0,0,1-.07-.27v-.23a9.85,9.85,0,0,1,.1-1.07q-.4.57-.65.89a7.89,7.89,0,0,1-.62.69Zm6.94-13.44L39.23,179h9.32Zm5.83-1.24H44.52l-.2.34.7,1.24h5.53Zm-1.24-2.21H45.8l-.91,1.61h4.46Zm2.48,4.39H45.36l.87,1.58H51.8Zm-3.79-6.74-1,1.74h2Zm5,8.92H46.57l.87,1.58H53Zm1.24,2.18h-5.6l.87,1.58h5.63Zm1.24,2.21H49l.87,1.58h5.63Zm1.24,2.18H50.22l.87,1.58h5.63ZM52,184.6a1.85,1.85,0,0,1-.22.62,3,3,0,0,1-.45.55H59l-.67-1.17Zm5.1-2.18H51.43l.17.3a3,3,0,0,1,.29.65c0,.15.07.35.12.62h6Z"/><path class="cls-3" d="M68.86,180.21l-.4-.7,5.06-3V167.2a10,10,0,0,0-.18-2.26,2,2,0,0,0-.69-1.12,2.82,2.82,0,0,0-1.16-.52,10.85,10.85,0,0,0-2.13-.15H68.19v-.84H87.44v.84H86.26a10.85,10.85,0,0,0-2.13.15,2.82,2.82,0,0,0-1.16.52,2,2,0,0,0-.69,1.12,10,10,0,0,0-.18,2.26v4.39l4.36-2.51.44.74-4.79,2.75v13.21H85a12.2,12.2,0,0,0,4-.62,12.65,12.65,0,0,0,3.6-2,31.22,31.22,0,0,0,3-2.56A25.42,25.42,0,0,0,98,177.73h.8v8.88H68.19v-.84h1.17a12.18,12.18,0,0,0,2.13-.13,2.46,2.46,0,0,0,1.16-.54,2,2,0,0,0,.69-1.12,10,10,0,0,0,.18-2.26v-4.19Zm10.56-15.89a5.48,5.48,0,0,1,.23-.57,4.57,4.57,0,0,1,.4-.6H73.22c.25.22.42.4.54.52a2.47,2.47,0,0,1,.37.65Zm-5.3,20.28a3.73,3.73,0,0,1-.35.64,3.67,3.67,0,0,1-.55.54h6.1V184.6Zm.2-19.68q.1.54.13.8a6.74,6.74,0,0,1,0,.77h4.83v-1.14a3,3,0,0,1,0-.44Zm.17,17.5c0,.38,0,.65-.05.82a6.48,6.48,0,0,1-.12.75h5v-1.58Zm0-15.32v1.61h4.83V167.1Zm0,2.21v1.58h4.83v-1.58Zm0,2.18v1.58h4.83v-1.58Zm0,2.18v1.58h4.83v-1.58Zm0,2.18v1.58h4.83v-1.58Zm0,2.21v1.58h4.83v-1.58Zm0,2.18v1.58h4.83v-1.58Zm18,3.89a14.7,14.7,0,0,1-1.51,1q-.6.32-1.48.69h6.71v-1.64Zm3.72-.6v-2.68q-.7.77-1.31,1.32t-1.61,1.36Z"/><path class="cls-3" d="M108.22,179.87a4,4,0,0,0-.18.65,3.83,3.83,0,0,0-.05.65,4.74,4.74,0,0,0,.69,2.46,3.84,3.84,0,0,0,1.76,1.63,4.31,4.31,0,0,0,1.09.33,17,17,0,0,0,1.73.17v.84H100v-.84a5.76,5.76,0,0,0,3.59-1.59,18,18,0,0,0,3.52-4.64l10.09-17.9H118L129.44,182a15.29,15.29,0,0,0,1.21,1.88,5.82,5.82,0,0,0,1.17,1.17,3.67,3.67,0,0,0,1.32.6,7.56,7.56,0,0,0,1.69.17h.5v.84H116.17v-.84H118a2.83,2.83,0,0,0,1.68-.45,1.43,1.43,0,0,0,.64-1.22,1.85,1.85,0,0,0-.12-.6c-.08-.22-.17-.46-.28-.7l-1.61-2.92Zm-3.89,4.73q-.57.47-.87.69t-.77.49h4.16q-.2-.34-.32-.57a3.28,3.28,0,0,1-.22-.6Zm1.84-.6a.76.76,0,0,1-.07-.27v-.23a9.85,9.85,0,0,1,.1-1.07q-.4.57-.65.89a7.89,7.89,0,0,1-.62.69Zm6.94-13.44L108.49,179h9.32Zm5.83-1.24h-5.16l-.2.34.7,1.24h5.53Zm-1.24-2.21h-2.65l-.91,1.61h4.46Zm2.48,4.39h-5.57l.87,1.58h5.57Zm-3.79-6.74-1,1.74h2Zm5,8.92h-5.57l.87,1.58h5.6Zm1.24,2.18H117l.87,1.58h5.63Zm1.24,2.21h-5.63l.87,1.58h5.63Zm1.24,2.18h-5.63l.87,1.58H126Zm-3.89,4.36a1.85,1.85,0,0,1-.22.62,3,3,0,0,1-.45.55h7.68l-.67-1.17Zm5.1-2.18h-5.63l.17.3a3,3,0,0,1,.29.65c0,.15.07.35.12.62h6Z"/><path class="cls-3" d="M162.87,172.26l-.6.13a29.23,29.23,0,0,0-3-5.23,11.76,11.76,0,0,0-3.75-3.37,9.07,9.07,0,0,0-4.46-1.19q-2.82,0-4.37,3.12t-1.56,8.78a21.37,21.37,0,0,0,1.37,8.21q1.51,3.59,4.9,3.59a11,11,0,0,0,6.52-2.13,15.52,15.52,0,0,0,4.88-5.92l.67.34a17.16,17.16,0,0,1-4,5.46,12.6,12.6,0,0,1-4.24,2.46,15.8,15.8,0,0,1-5.28.85,16.65,16.65,0,0,1-5.8-1,14.22,14.22,0,0,1-4.63-2.73,12.62,12.62,0,0,1-3.05-4.12,12.17,12.17,0,0,1-1.11-5.2,12.57,12.57,0,0,1,5.8-10.63,13.93,13.93,0,0,1,3.81-1.59,17.29,17.29,0,0,1,4.48-.59,13.48,13.48,0,0,1,3.24.37,15,15,0,0,1,3.1,1.17,8.16,8.16,0,0,0,1.31.6,3.55,3.55,0,0,0,1,.13,4.32,4.32,0,0,0,1.86-.4,7.23,7.23,0,0,0,1.79-1.27h.6Zm-26.52,1.41a3.66,3.66,0,0,0,0,.44v.7a3.65,3.65,0,0,0,0,.44h5.3v-.94l0-.64Zm.3-2.18a5.86,5.86,0,0,0-.17.79q0,.28-.1.79h5.33q.07-.47.1-.79t.1-.79Zm-.23,4.36.12.77a6.56,6.56,0,0,0,.18.8h5.1q-.07-.47-.08-.79t-.05-.79Zm1-6.54q-.24.5-.33.79l-.27.79H142l.17-.79a6.19,6.19,0,0,1,.23-.79Zm-.5,8.75a6.81,6.81,0,0,0,.3.82l.37.75h4.73l-.18-.74q-.08-.34-.18-.84Zm1.78-11-.52.77q-.22.34-.49.84h4.93a8,8,0,0,1,.32-.87l.32-.74Zm-.8,13.14a8.18,8.18,0,0,0,.5.79l.6.79h4.09c-.13-.31-.24-.57-.32-.79l-.29-.79Zm2.92-15.32q-.54.44-.87.75t-.77.82h4.39q.27-.5.47-.84a6,6,0,0,1,.54-.74Zm-1.27,17.5.84.82a8.32,8.32,0,0,0,.94.75h3l-.5-.8a5,5,0,0,1-.4-.77Zm5.5-18.1.39-.44.4-.42q.22-.22.5-.45l.69-.57a11.93,11.93,0,0,0-2.77.6,11.22,11.22,0,0,0-2.56,1.27Zm-2.78,20.28a12.29,12.29,0,0,0,1.89,1,12.56,12.56,0,0,0,2,.57l-.8-.82q-.27-.28-.6-.72ZM160.15,164a4.2,4.2,0,0,1-1,.4,6.32,6.32,0,0,1-1.29.1l.27.22.23.18h1.88Zm-1.21,1.51q.47.54.79.94a7.26,7.26,0,0,1,.62.94l-.1-1.88Z"/><path class="cls-3" d="M205,169.38q2.25-1.64,2.25-3.59a2.37,2.37,0,0,0-.85-2,3.73,3.73,0,0,0-2.4-.69h-.91v-.84h17.37v.84H220a11.45,11.45,0,0,0-2.58.3,15.9,15.9,0,0,0-2.77.94,26,26,0,0,0-3.15,1.68q-1.69,1-3.7,2.48l-3.05,2.21,7.74,9.22q.74.87,1.49,1.68t1.48,1.48q.72.67,1.34,1.17a8.51,8.51,0,0,0,1.09.77,5.72,5.72,0,0,0,1.59.54,13.55,13.55,0,0,0,2.4.17h1v.84H202.26v-.84h1.11a2.84,2.84,0,0,0,1.39-.25,1,1,0,0,0,.42-.89,1.59,1.59,0,0,0-.2-.77,8.56,8.56,0,0,0-.84-1.14l-6-7.24-2.45,1.74v4.49a10,10,0,0,0,.18,2.26,2,2,0,0,0,.69,1.12,2.46,2.46,0,0,0,1.16.54,12.18,12.18,0,0,0,2.13.13h.27v.84H181.74v-.84h1.17a12.18,12.18,0,0,0,2.13-.13,2.46,2.46,0,0,0,1.16-.54,2,2,0,0,0,.69-1.12,10,10,0,0,0,.18-2.26V167.2a10,10,0,0,0-.18-2.26,2,2,0,0,0-.69-1.12,2.82,2.82,0,0,0-1.16-.52,10.85,10.85,0,0,0-2.13-.15h-1.17v-.84H201v.84h-1.17a10.85,10.85,0,0,0-2.13.15,2.82,2.82,0,0,0-1.16.52,2,2,0,0,0-.69,1.12,10,10,0,0,0-.18,2.26v8.88Zm-12-5.06a5.48,5.48,0,0,1,.23-.57,4.57,4.57,0,0,1,.4-.6h-6.84c.25.22.42.4.54.52a2.47,2.47,0,0,1,.37.65Zm-5.3,20.28a3.73,3.73,0,0,1-.35.64,4.34,4.34,0,0,1-.52.54h6.81a4.18,4.18,0,0,1-.4-.55,3.63,3.63,0,0,1-.23-.62Zm.2-19.68q.1.54.13.8a6.74,6.74,0,0,1,0,.77h4.83v-1.14a3,3,0,0,1,0-.44Zm.17,17.5a6.74,6.74,0,0,1,0,.77c0,.18-.07.45-.13.8h5a2.81,2.81,0,0,1,0-.4v-1.17Zm0-15.32v1.61h4.83V167.1Zm0,2.21v1.58h4.83v-1.58Zm0,2.18v1.58h4.83v-1.58Zm0,2.18v1.58h4.83v-1.58Zm0,2.18v1.58h4.83v-1.58Zm0,2.21v1.58h4.83v-1.58Zm0,2.18v1.58h4.83v-1.58Zm12.51-6.57-1.74,1.24.27.34h5.6l-1.31-1.58Zm-1,2.18,1.31,1.58h5.63l-1.31-1.58Zm2.72-3.45-.91.67h1.48Zm-.91,5.67,1.27,1.58h5.7L207,178.06Zm1.78,2.18,1.31,1.58h5.73l-1.34-1.58Zm1.78,2.18.47.57a3,3,0,0,1,.6,1h6l-1.34-1.58Zm1.21,2.18a2.12,2.12,0,0,1-.08.65,1.87,1.87,0,0,1-.28.52h7.74l-1-1.17Zm5.7-21.46h-5a7.49,7.49,0,0,1,.55.6,3.41,3.41,0,0,1,.35.57h2.92ZM208,164.92a5.69,5.69,0,0,1,.13.59,2.63,2.63,0,0,1,0,.39,5.13,5.13,0,0,1-.13,1l2-1.94Z"/><path class="cls-3" d="M245.91,162.46a16.05,16.05,0,0,1,5.3,2.72,12.45,12.45,0,0,1,3.44,4.21,11.9,11.9,0,0,1,1.22,5.4,12.24,12.24,0,0,1-1.36,5.67,11.38,11.38,0,0,1-3.77,4.29,14.69,14.69,0,0,1-4.63,2,28.83,28.83,0,0,1-13-.18,15.62,15.62,0,0,1-5.3-2.68,12.26,12.26,0,0,1-3.65-4.24,11.3,11.3,0,0,1-1.24-5.21,11.69,11.69,0,0,1,1.37-5.55,12.43,12.43,0,0,1,3.89-4.38,15.39,15.39,0,0,1,2.31-1.36,15.78,15.78,0,0,1,2.5-.92,18,18,0,0,1,2.82-.54,29.38,29.38,0,0,1,3.27-.17A23,23,0,0,1,245.91,162.46Zm-22,11.21a3.65,3.65,0,0,0,0,.44v.67a4.49,4.49,0,0,0,0,.47h5.7a3.65,3.65,0,0,1,0-.44v-.67a3.84,3.84,0,0,1,0-.47Zm.37-2.18a8.35,8.35,0,0,0-.18.82l-.12.75h5.67l.1-.85q0-.28.1-.72Zm-.3,4.36q.07.47.13.75c0,.19.12.46.23.82h5.53q-.1-.57-.13-.82l-.1-.75Zm1.14-6.54q-.24.47-.37.79t-.3.79H230l.22-.79q.08-.32.22-.79Zm-.57,8.75q.17.47.32.82a6.89,6.89,0,0,0,.39.75h5.16a7.21,7.21,0,0,1-.23-.75l-.2-.82Zm2-11q-.37.44-.62.79t-.52.82h5.16l.33-.87a5.66,5.66,0,0,1,.37-.74Zm-1,13.14a6.16,6.16,0,0,0,.54.8l.64.77h4.56a7.93,7.93,0,0,1-.35-.72l-.35-.85ZM229,164.92q-.6.44-1,.79t-.84.79h4.53q.27-.47.5-.82t.54-.75Zm-1.64,17.5a12.24,12.24,0,0,0,.92.84,11.41,11.41,0,0,0,1,.74h3.39q-.34-.44-.55-.77t-.49-.8Zm5.87-18.1q.37-.44.69-.75t1-1a16.35,16.35,0,0,0-2.67.64,12.44,12.44,0,0,0-2.33,1.07Zm-3,20.28a15,15,0,0,0,2.23,1,11,11,0,0,0,2.23.55l-.91-.82a9.1,9.1,0,0,1-.67-.72Zm4.22-18.41a19,19,0,0,0-1.17,3.94,23,23,0,0,0-.4,4.27,23.31,23.31,0,0,0,.4,4.27,20.4,20.4,0,0,0,1.14,4,6.87,6.87,0,0,0,2.06,3,5.07,5.07,0,0,0,3.13.92,4.78,4.78,0,0,0,2.7-.79,6.34,6.34,0,0,0,2-2.26,12.61,12.61,0,0,0,1.26-3.62,24.59,24.59,0,0,0,.44-4.86,29.54,29.54,0,0,0-.37-4.81,18.83,18.83,0,0,0-1-3.91,7.22,7.22,0,0,0-2.13-3,5,5,0,0,0-3.1-1Q236.12,162.34,234.52,166.2Zm10.19,18.41-.35.49a4,4,0,0,1-.33.42q-.19.2-.44.44l-.59.57a8.8,8.8,0,0,0,2.3-.6,11.84,11.84,0,0,0,2.23-1.31Zm2.51-20.28-.94-.54q-.44-.23-.91-.44t-1-.39q-.57-.18-1.31-.39.57.57.87.9a7.4,7.4,0,0,1,.64.84Zm-2.31.6q.27.47.44.8t.33.77h4a8.09,8.09,0,0,0-.75-.84q-.39-.37-.85-.74Zm.91,17.5q-.2.5-.34.8t-.4.77h3.22q.47-.4.82-.75a9.31,9.31,0,0,0,.72-.82Zm.1-15.32a7,7,0,0,1,.25.77l.22.84h4.73q-.27-.5-.49-.85l-.49-.75Zm.57,13.14q-.1.47-.2.79c-.07.21-.16.47-.27.79h4.29q.3-.44.5-.77l.47-.8Zm0-10.93a2.68,2.68,0,0,0,.08.44,1.89,1.89,0,0,1,.07.32c0,.1,0,.21.05.34s0,.29.07.49H252q-.13-.47-.25-.77t-.35-.8Zm.37,8.75q-.07.47-.12.77t-.15.8h4.93l.34-.8c.09-.22.18-.48.27-.77Zm0-6.57q.07.44.08.72l.05.85h5.57l-.12-.7a8.1,8.1,0,0,0-.22-.87Zm.17,4.36q0,.47,0,.74a8,8,0,0,1-.07.84h5.4a4.81,4.81,0,0,0,.17-.79q0-.32.1-.79Zm0-2.18v1.58h5.63v-1c0-.13,0-.31,0-.54Z"/><path class="cls-3" d="M281.05,186.61h-.7l-12-19.61v12.2a7.49,7.49,0,0,0,1.37,4.88,5.05,5.05,0,0,0,4.06,1.69v.84H261.44v-.84a8.82,8.82,0,0,0,2.3-.35,4.47,4.47,0,0,0,1.59-1,6.71,6.71,0,0,0,2-5.26V165.29a5.42,5.42,0,0,0-4.76-2.15h-1v-.84h14.15l9.15,15.15,7.81-15.15h13.78v.84h-1.17a10.85,10.85,0,0,0-2.13.15,2.82,2.82,0,0,0-1.16.52,2,2,0,0,0-.69,1.12,10,10,0,0,0-.18,2.26v14.52a10,10,0,0,0,.18,2.26,2,2,0,0,0,.69,1.12,2.46,2.46,0,0,0,1.16.54,12.18,12.18,0,0,0,2.13.13h1.17v.84H287.22v-.84h1.17a11.92,11.92,0,0,0,2.1-.13,2.47,2.47,0,0,0,1.16-.54,2,2,0,0,0,.69-1.12,10,10,0,0,0,.18-2.26V164.65ZM266,185l-.54.47a5,5,0,0,1-.5.34h3.62a3.23,3.23,0,0,1-.32-.35c-.06-.08-.15-.23-.29-.45Zm6.47-21.83h-6.3q.47.27.8.5a3.9,3.9,0,0,1,.7.67h5.5Zm-4.76,21.22a4.25,4.25,0,0,1-.22-.7c0-.18-.07-.42-.12-.74a6.56,6.56,0,0,1-.3.69,7.13,7.13,0,0,1-.5.75Zm.44-19.45q.23.34.35.54l.45.74.2.3h5.36l-1-1.58Zm1.37,2.18,1,1.61h5.36l-1-1.61Zm1.34,2.21.94,1.58h5.36l-.94-1.58Zm1.31,2.18,1,1.58h5.36l-1-1.58Zm1.34,2.18,1,1.58h5.33l-.94-1.58Zm1.34,2.18.94,1.58h5.36l-1-1.58Zm1.31,2.21,1,1.58h5.33l-.94-1.58Zm1.34,2.18.94,1.58h4.16l.54-1.07-.27-.5Zm1.31,2.18,1,1.58h1.64l.84-1.58Zm1.34,2.18.5.87.47-.87Zm12.94,0a2.36,2.36,0,0,1-.34.64,4.77,4.77,0,0,1-.57.54h6.84a3.52,3.52,0,0,1-.4-.57,4.89,4.89,0,0,1-.23-.6Zm.37-2.18c0,.38,0,.65-.05.82a6.56,6.56,0,0,1-.12.75h5a3.64,3.64,0,0,1,0-.44v-1.14Zm4.93-18.1a5.71,5.71,0,0,1,.23-.57,4.57,4.57,0,0,1,.4-.6h-5.57v1.17Zm-4.93.6v1.58h4.83v-1.14a3.65,3.65,0,0,1,0-.44Zm0,2.18v1.61h4.83V167.1Zm0,2.21v1.58h4.83v-1.58Zm0,2.18v1.58h4.83v-1.58Zm0,2.18v1.58h4.83v-1.58Zm0,2.18v1.58h4.83v-1.58Zm0,2.21v1.58h4.83v-1.58Zm0,2.18v1.58h4.83v-1.58Z"/><path class="cls-3" d="M330.94,186.61H311.73v-.84h1.17a12.18,12.18,0,0,0,2.13-.13,2.46,2.46,0,0,0,1.16-.54,2,2,0,0,0,.69-1.12,10,10,0,0,0,.18-2.26V167.2a10,10,0,0,0-.18-2.26,2,2,0,0,0-.69-1.12,2.82,2.82,0,0,0-1.16-.52,10.85,10.85,0,0,0-2.13-.15h-1.17v-.84H331v.84H329.8a10.85,10.85,0,0,0-2.13.15,2.82,2.82,0,0,0-1.16.52,2,2,0,0,0-.69,1.12,10,10,0,0,0-.18,2.26v14.52a10,10,0,0,0,.18,2.26,2,2,0,0,0,.69,1.12,2.46,2.46,0,0,0,1.16.54,11.92,11.92,0,0,0,2.1.13h1.17Zm-8-22.29a5.48,5.48,0,0,1,.23-.57,4.57,4.57,0,0,1,.4-.6h-6.84c.25.22.42.4.54.52a2.47,2.47,0,0,1,.37.65Zm-5.3,20.28a3.73,3.73,0,0,1-.35.64,3.67,3.67,0,0,1-.55.54h6.84a4.18,4.18,0,0,1-.4-.55,3.63,3.63,0,0,1-.23-.62Zm.2-19.68q.1.54.13.8a6.74,6.74,0,0,1,0,.77h4.83v-1.14a3,3,0,0,1,0-.44Zm.17,17.5c0,.38,0,.65-.05.82a6.48,6.48,0,0,1-.12.75h5a2.81,2.81,0,0,1,0-.4v-1.17Zm0-15.32v1.61h4.83V167.1Zm0,2.21v1.58h4.83v-1.58Zm0,2.18v1.58h4.83v-1.58Zm0,2.18v1.58h4.83v-1.58Zm0,2.18v1.58h4.83v-1.58Zm0,2.21v1.58h4.83v-1.58Zm0,2.18v1.58h4.83v-1.58Z"/><path class="cls-3" d="M366.54,171.12h-.8a34.19,34.19,0,0,0-2.72-3.19,33.57,33.57,0,0,0-2.92-2.65q-.8-.6-1.49-1a7.59,7.59,0,0,0-1.39-.67,7.11,7.11,0,0,0-1.49-.35,14,14,0,0,0-1.76-.1h-3.82v10.29h.94a7,7,0,0,0,3.79-1,9,9,0,0,0,2.92-3.2h.87v9.32h-.87a9.37,9.37,0,0,0-3-3.18,6.87,6.87,0,0,0-3.72-1.07h-.94v11.5H353a13.57,13.57,0,0,0,2.08-.15,10.49,10.49,0,0,0,1.88-.47,11.15,11.15,0,0,0,1.79-.82,17.17,17.17,0,0,0,1.83-1.21,33.25,33.25,0,0,0,2.82-2.45,32.05,32.05,0,0,0,2.65-3h.77v8.88H336.23v-.84h1.17a12.18,12.18,0,0,0,2.13-.13,2.46,2.46,0,0,0,1.16-.54,2,2,0,0,0,.69-1.12,10,10,0,0,0,.18-2.26V167.2a10,10,0,0,0-.18-2.26,2,2,0,0,0-.69-1.12,2.82,2.82,0,0,0-1.16-.52,10.85,10.85,0,0,0-2.13-.15h-1.17v-.84h30.31Zm-19.18-8h-6.1a6,6,0,0,1,.54.54,3,3,0,0,1,.37.64h5.2Zm-5.2,21.46a3.73,3.73,0,0,1-.35.64,3.67,3.67,0,0,1-.55.54h6.1V184.6Zm.2-19.68a6.29,6.29,0,0,1,.12.77l.05.8h4.83v-1.58Zm.17,17.5c0,.38,0,.65-.05.82a6.48,6.48,0,0,1-.12.75h5v-1.58Zm0-15.32v1.61h4.83V167.1Zm0,2.21v1.58h4.83v-1.58Zm0,2.18v1.58h4.83v-1.58Zm0,2.18v1.58h4.83v-1.58Zm0,2.18v1.58h4.83v-1.58Zm0,2.21v1.58h4.83v-1.58Zm0,2.18v1.58h4.83v-1.58Zm11.57-6.07a6.61,6.61,0,0,1,1.39.79,6.34,6.34,0,0,1,1.19,1.09v-1.88Zm2.58-.64v-1.78a6.66,6.66,0,0,1-1.11,1,7.09,7.09,0,0,1-1.31.79Zm3.59,10.83q-.44.3-.75.49l-.62.34-.59.29-.69.3h6.67v-1.41ZM364,163.14h-5.8l.45.29.4.25.5.34.79.54H364Zm.3,20.62v-2.92a15.53,15.53,0,0,1-1.34,1.37q-.7.64-1.88,1.54Zm-3.19-18.61q.94.77,1.59,1.41A17.9,17.9,0,0,1,364,168v-2.82Z"/><path class="cls-3" d="M401.78,182.93a5.73,5.73,0,0,0,2,2.2,5.62,5.62,0,0,0,2.88.65v.84H395.07l-6.34-11.5h-1.94v6.6A10,10,0,0,0,387,184a2,2,0,0,0,.69,1.12,2.46,2.46,0,0,0,1.16.54,11.92,11.92,0,0,0,2.1.13h.2v.84H372.88v-.84h1.17a12.18,12.18,0,0,0,2.13-.13,2.46,2.46,0,0,0,1.16-.54A2,2,0,0,0,378,184a10,10,0,0,0,.18-2.26V167.2a10,10,0,0,0-.18-2.26,2,2,0,0,0-.69-1.12,2.82,2.82,0,0,0-1.16-.52,10.85,10.85,0,0,0-2.13-.15h-1.17v-.84h20.22l2.88,0q1.11,0,1.86.1a7.74,7.74,0,0,1,1.32.25q.57.17,1.27.44a5.74,5.74,0,0,1,2.72,2.15,5.87,5.87,0,0,1,1,3.39,5.67,5.67,0,0,1-1.66,4.24,8.91,8.91,0,0,1-4.91,2.16ZM384,163.14h-6.1c.25.22.42.4.54.52a2.47,2.47,0,0,1,.37.65H384Zm-5.2,21.46a3.73,3.73,0,0,1-.35.64,3.67,3.67,0,0,1-.55.54h6.84a4.18,4.18,0,0,1-.4-.55,3.63,3.63,0,0,1-.23-.62Zm.2-19.68q.1.54.13.8a6.74,6.74,0,0,1,0,.77H384v-1.58Zm.17,17.5c0,.38,0,.65-.05.82a6.48,6.48,0,0,1-.12.75h5a2.81,2.81,0,0,1,0-.4v-1.17Zm0-15.32v1.61H384V167.1Zm0,2.21v1.58H384v-1.58Zm0,2.18v1.58H384v-1.58Zm0,2.18v1.58H384v-1.58Zm0,2.18v1.58H384v-1.58Zm0,2.21v1.58H384v-1.58Zm0,2.18v1.58H384v-1.58Zm9.86-6a9.2,9.2,0,0,0,2.4-.29,4.39,4.39,0,0,0,1.73-.85,4.18,4.18,0,0,0,1.21-1.79,7.23,7.23,0,0,0,.44-2.56,7,7,0,0,0-.49-2.67,4.26,4.26,0,0,0-1.39-1.86,4.74,4.74,0,0,0-1.71-.85,9.89,9.89,0,0,0-2.48-.25h-1.94v11.13Zm4.93-.6a4.68,4.68,0,0,1-1.68.94,12.42,12.42,0,0,1-2.51.5l.07.13h4.66l.57-.27,1-.44,1-.47q.33-.17.74-.4Zm-3.79,2.18.87,1.58h4.63l-.84-1.58Zm1.21,2.21.87,1.58h4.59l-.84-1.58Zm1.21,2.18.84,1.58H398l-.84-1.58Zm6.07-15.92a9.86,9.86,0,0,0-1.06-.6,4.45,4.45,0,0,0-1.12-.35,12.36,12.36,0,0,0-1.51-.17q-.87-.05-2.21-.05.54.37.79.59c.17.15.37.34.62.59Zm-4.89,18.1.87,1.58h4.56l-.87-1.58Zm1.58-10.93a4.87,4.87,0,0,1-.35.87,4.68,4.68,0,0,1-.49.7h4.29a5.76,5.76,0,0,0,1.48-1.58Zm-.67-6.57q.3.47.45.74a5.72,5.72,0,0,1,.35.84h5a7.34,7.34,0,0,0-.49-.84,5.21,5.21,0,0,0-.62-.74Zm.3,19.68.64,1.17h4.53l-.64-1.17Zm.8-15.29q-.07.54-.1.82t-.13.75h5.06a6.89,6.89,0,0,0,.23-.77q.07-.3.13-.8Zm-.13-2.21.1.82q0,.28.07.79H401c0-.31-.05-.58-.08-.8a6.64,6.64,0,0,0-.18-.8Z"/><path class="cls-3" d="M433.19,162.46a16.05,16.05,0,0,1,5.3,2.72,12.45,12.45,0,0,1,3.44,4.21,11.9,11.9,0,0,1,1.22,5.4,12.24,12.24,0,0,1-1.36,5.67,11.38,11.38,0,0,1-3.77,4.29,14.69,14.69,0,0,1-4.63,2,28.83,28.83,0,0,1-13-.18,15.62,15.62,0,0,1-5.3-2.68,12.26,12.26,0,0,1-3.65-4.24,11.3,11.3,0,0,1-1.24-5.21,11.69,11.69,0,0,1,1.37-5.55,12.43,12.43,0,0,1,3.89-4.38,15.39,15.39,0,0,1,2.31-1.36,15.78,15.78,0,0,1,2.5-.92,18,18,0,0,1,2.82-.54,29.38,29.38,0,0,1,3.27-.17A23,23,0,0,1,433.19,162.46Zm-22,11.21a3.65,3.65,0,0,0,0,.44v.67a4.49,4.49,0,0,0,0,.47h5.7a3.65,3.65,0,0,1,0-.44v-.67a3.84,3.84,0,0,1,0-.47Zm.37-2.18a8.35,8.35,0,0,0-.18.82l-.12.75H417l.1-.85q0-.28.1-.72Zm-.3,4.36q.07.47.13.75c0,.19.12.46.23.82h5.53q-.1-.57-.13-.82l-.1-.75Zm1.14-6.54q-.24.47-.37.79t-.3.79h5.5l.22-.79q.08-.32.22-.79Zm-.57,8.75q.17.47.32.82a6.89,6.89,0,0,0,.39.75h5.16a7.21,7.21,0,0,1-.23-.75l-.2-.82Zm2-11q-.37.44-.62.79t-.52.82h5.16l.33-.87a5.66,5.66,0,0,1,.37-.74Zm-1,13.14a6.16,6.16,0,0,0,.54.8l.64.77h4.56a7.93,7.93,0,0,1-.35-.72l-.35-.85Zm3.39-15.32q-.6.44-1,.79t-.84.79H419q.27-.47.5-.82t.54-.75Zm-1.64,17.5a12.24,12.24,0,0,0,.92.84,11.41,11.41,0,0,0,1,.74H420q-.34-.44-.55-.77t-.49-.8Zm5.87-18.1q.37-.44.69-.75t1-1a16.35,16.35,0,0,0-2.67.64,12.44,12.44,0,0,0-2.33,1.07Zm-3,20.28a15,15,0,0,0,2.23,1,11,11,0,0,0,2.23.55l-.91-.82a9.1,9.1,0,0,1-.67-.72Zm4.22-18.41a19,19,0,0,0-1.17,3.94,23,23,0,0,0-.4,4.27,23.31,23.31,0,0,0,.4,4.27,20.4,20.4,0,0,0,1.14,4,6.87,6.87,0,0,0,2.06,3,5.07,5.07,0,0,0,3.13.92,4.78,4.78,0,0,0,2.7-.79,6.34,6.34,0,0,0,2-2.26,12.61,12.61,0,0,0,1.26-3.62,24.59,24.59,0,0,0,.44-4.86,29.54,29.54,0,0,0-.37-4.81,18.83,18.83,0,0,0-1-3.91,7.22,7.22,0,0,0-2.13-3,5,5,0,0,0-3.1-1Q423.4,162.34,421.79,166.2ZM432,184.6l-.35.49a4,4,0,0,1-.33.42q-.19.2-.44.44l-.59.57a8.8,8.8,0,0,0,2.3-.6,11.84,11.84,0,0,0,2.23-1.31Zm2.51-20.28-.94-.54q-.44-.23-.91-.44t-1-.39q-.57-.18-1.31-.39.57.57.87.9a7.4,7.4,0,0,1,.64.84Zm-2.31.6q.27.47.44.8t.33.77h4a8.09,8.09,0,0,0-.75-.84q-.39-.37-.85-.74Zm.91,17.5q-.2.5-.34.8t-.4.77h3.22q.47-.4.82-.75a9.31,9.31,0,0,0,.72-.82Zm.1-15.32a7,7,0,0,1,.25.77l.22.84h4.73q-.27-.5-.49-.85l-.49-.75Zm.57,13.14q-.1.47-.2.79c-.07.21-.16.47-.27.79h4.29q.3-.44.5-.77l.47-.8Zm0-10.93a2.68,2.68,0,0,0,.08.44,1.89,1.89,0,0,1,.07.32c0,.1,0,.21.05.34s0,.29.07.49h5.23q-.13-.47-.25-.77t-.35-.8Zm.37,8.75q-.07.47-.12.77t-.15.8h4.93l.34-.8c.09-.22.18-.48.27-.77Zm0-6.57q.07.44.08.72l.05.85h5.57l-.12-.7a8.1,8.1,0,0,0-.22-.87Zm.17,4.36q0,.47,0,.74a8,8,0,0,1-.07.84h5.4a4.81,4.81,0,0,0,.17-.79q0-.32.1-.79Zm0-2.18v1.58h5.63v-1c0-.13,0-.31,0-.54Z"/><path class="cls-3" d="M486.9,171a8.14,8.14,0,0,0,.62-1.63,6.33,6.33,0,0,0,.15-1.42,4.61,4.61,0,0,0-.6-2.33,5.43,5.43,0,0,0-1.78-1.83,5.69,5.69,0,0,0-.85-.44,4.12,4.12,0,0,0-1.09-.23v-.84h12.77v.84a6.49,6.49,0,0,0-4.29,1.91,16.5,16.5,0,0,0-3.55,5.33l-7.88,17.13h-.64l-9.45-18.34-8.52,18.34h-.64L451.09,168l-.8-1.59q-.3-.59-.52-.94a3.8,3.8,0,0,0-.4-.55l-.49-.5a5.11,5.11,0,0,0-3.72-1.27h-.74v-.84h17.8v.84h-.84a4.5,4.5,0,0,0-1.79.25.9.9,0,0,0-.52.89,3.21,3.21,0,0,0,.44,1.41l5.87,11.57L469.7,168a22.85,22.85,0,0,0-1.19-2.23,6.58,6.58,0,0,0-1.17-1.44,4.16,4.16,0,0,0-1.36-.82,7.25,7.25,0,0,0-1.74-.37v-.84h16.6v.84H480a4.49,4.49,0,0,0-1.79.25.93.93,0,0,0-.52.92,3.18,3.18,0,0,0,.44,1.37l5.9,11.57ZM456,164.32c0-.22.08-.4.12-.54a3.23,3.23,0,0,1,.29-.64h-8l.91.64a3.07,3.07,0,0,1,.54.54Zm-5.7.6.42.62a5.22,5.22,0,0,1,.35.65l.17.3h5.4l-.3-.57a1.69,1.69,0,0,1-.2-.49l-.1-.52Zm1.24,2.18.8,1.61h5.4l-.8-1.61Zm1.14,2.21.8,1.58h5.36l-.8-1.58Zm1.11,2.18.84,1.58h5.33l-.8-1.58Zm1.14,2.18.8,1.58h5.36l-.8-1.58Zm1.14,2.18.8,1.58h5.33l-.8-1.58Zm1.11,2.21.84,1.58h5.3l-.8-1.58Zm1.14,2.18.8,1.58h4.26l.5-1.07-.27-.5Zm1.14,2.18.8,1.58h2.11l.74-1.58Zm1.11,2.18.84,1.58.7-1.58Zm14-20.28q.07-.34.12-.54a3.22,3.22,0,0,1,.28-.64h-8a8.29,8.29,0,0,1,.89.62,6.46,6.46,0,0,1,.55.55Zm-5.7.6a4.8,4.8,0,0,1,.4.6l.37.67.17.3h5.4l-.3-.57a1.69,1.69,0,0,1-.2-.49l-.1-.52Zm1.24,2.18.8,1.61h5.4l-.8-1.61Zm1.14,2.21.8,1.58h5.36l-.8-1.58Zm1.11,2.18.84,1.58h5.33l-.8-1.58Zm1.14,2.18.8,1.58h5.36l-.8-1.58Zm1.14,2.18.8,1.58h5.33l-.8-1.58Zm1.11,2.21.84,1.58h5.3l-.8-1.58Zm1.14,2.18.8,1.58H482l.5-1.07-.27-.5Zm1.14,2.18.8,1.58H481l.74-1.58Zm1.11,2.18.84,1.58.7-1.58ZM490.62,164l.3-.4.33-.47h-5.46l.75.62a4.33,4.33,0,0,1,.52.55h3.32Zm-3.05.91a5.23,5.23,0,0,1,.69,1.21,4.94,4.94,0,0,1,.29,1.31q.4-.87.7-1.41a12.8,12.8,0,0,1,.7-1.11Z"/><path class="cls-3" d="M520.5,162.46a16.05,16.05,0,0,1,5.3,2.72,12.45,12.45,0,0,1,3.44,4.21,11.9,11.9,0,0,1,1.22,5.4,12.24,12.24,0,0,1-1.36,5.67,11.38,11.38,0,0,1-3.77,4.29,14.69,14.69,0,0,1-4.63,2,28.83,28.83,0,0,1-13-.18,15.62,15.62,0,0,1-5.3-2.68,12.26,12.26,0,0,1-3.65-4.24,11.3,11.3,0,0,1-1.24-5.21,11.69,11.69,0,0,1,1.37-5.55,12.43,12.43,0,0,1,3.89-4.38,15.39,15.39,0,0,1,2.31-1.36,15.78,15.78,0,0,1,2.5-.92,18,18,0,0,1,2.82-.54,29.38,29.38,0,0,1,3.27-.17A23,23,0,0,1,520.5,162.46Zm-22,11.21a3.65,3.65,0,0,0,0,.44v.67a4.49,4.49,0,0,0,0,.47h5.7a3.65,3.65,0,0,1,0-.44v-.67a3.84,3.84,0,0,1,0-.47Zm.37-2.18a8.35,8.35,0,0,0-.18.82l-.12.75h5.67l.1-.85q0-.28.1-.72Zm-.3,4.36q.07.47.13.75c0,.19.12.46.23.82h5.53q-.1-.57-.13-.82l-.1-.75Zm1.14-6.54q-.24.47-.37.79t-.3.79h5.5l.22-.79q.08-.32.22-.79Zm-.57,8.75q.17.47.32.82a6.89,6.89,0,0,0,.39.75H505a7.21,7.21,0,0,1-.23-.75l-.2-.82Zm2-11q-.37.44-.62.79t-.52.82h5.16l.33-.87a5.66,5.66,0,0,1,.37-.74Zm-1,13.14a6.16,6.16,0,0,0,.54.8l.64.77h4.56a7.93,7.93,0,0,1-.35-.72l-.35-.85Zm3.39-15.32q-.6.44-1,.79t-.84.79h4.53q.27-.47.5-.82t.54-.75ZM502,182.42a12.24,12.24,0,0,0,.92.84,11.41,11.41,0,0,0,1,.74h3.39q-.34-.44-.55-.77t-.49-.8Zm5.87-18.1q.37-.44.69-.75t1-1a16.35,16.35,0,0,0-2.67.64,12.44,12.44,0,0,0-2.33,1.07Zm-3,20.28a15,15,0,0,0,2.23,1,11,11,0,0,0,2.23.55l-.91-.82a9.1,9.1,0,0,1-.67-.72Zm4.22-18.41a19,19,0,0,0-1.17,3.94,23,23,0,0,0-.4,4.27,23.31,23.31,0,0,0,.4,4.27,20.4,20.4,0,0,0,1.14,4,6.87,6.87,0,0,0,2.06,3,5.07,5.07,0,0,0,3.13.92,4.78,4.78,0,0,0,2.7-.79,6.34,6.34,0,0,0,2-2.26,12.61,12.61,0,0,0,1.26-3.62,24.59,24.59,0,0,0,.44-4.86,29.54,29.54,0,0,0-.37-4.81,18.83,18.83,0,0,0-1-3.91,7.22,7.22,0,0,0-2.13-3,5,5,0,0,0-3.1-1Q510.71,162.34,509.1,166.2Zm10.19,18.41-.35.49a4,4,0,0,1-.33.42q-.19.2-.44.44l-.59.57a8.8,8.8,0,0,0,2.3-.6,11.84,11.84,0,0,0,2.23-1.31Zm2.51-20.28-.94-.54q-.44-.23-.91-.44t-1-.39q-.57-.18-1.31-.39.57.57.87.9a7.4,7.4,0,0,1,.64.84Zm-2.31.6q.27.47.44.8t.33.77h4a8.09,8.09,0,0,0-.75-.84q-.39-.37-.85-.74Zm.91,17.5q-.2.5-.34.8t-.4.77h3.22q.47-.4.82-.75a9.31,9.31,0,0,0,.72-.82Zm.1-15.32a7,7,0,0,1,.25.77l.22.84h4.73q-.27-.5-.49-.85l-.49-.75Zm.57,13.14q-.1.47-.2.79c-.07.21-.16.47-.27.79h4.29q.3-.44.5-.77l.47-.8Zm0-10.93a2.68,2.68,0,0,0,.08.44,1.89,1.89,0,0,1,.07.32c0,.1,0,.21.05.34s0,.29.07.49h5.23q-.13-.47-.25-.77t-.35-.8Zm.37,8.75q-.07.47-.12.77t-.15.8h4.93l.34-.8c.09-.22.18-.48.27-.77Zm0-6.57q.07.44.08.72l.05.85h5.57l-.12-.7a8.1,8.1,0,0,0-.22-.87Zm.17,4.36q0,.47,0,.74a8,8,0,0,1-.07.84h5.4a4.81,4.81,0,0,0,.17-.79q0-.32.1-.79Zm0-2.18v1.58h5.63v-1c0-.13,0-.31,0-.54Z"/><path class="cls-2" d="M201.13,216.25q0,3.67-5.1,7.93a39.84,39.84,0,0,1-5.16,3.64l-4.2,2.44-.36-.29a5.9,5.9,0,0,0,.89-1.79q.16-.51.56-2.21.36-1.48.58-2.26a23.78,23.78,0,0,1,1.1-3l-.07,0a24.56,24.56,0,0,1-8.07,8.07,3.66,3.66,0,0,1-2.21,1.34c-.19,0-.29-.08-.29-.22s.28-.39.85-.85a15.42,15.42,0,0,0,1.3-3.64,38.89,38.89,0,0,1,1.3-4.31,11.9,11.9,0,0,1,1.92-3.2,16.31,16.31,0,0,1,3.11-2.59l0-.13q-2.26.69-5.05,1.59-4,1.52-4,3.69a1.74,1.74,0,0,0,.4,1.21,1.35,1.35,0,0,0,1.05.45,1.4,1.4,0,0,0,1.07-.49,1.67,1.67,0,0,0,.45-1.16,5.83,5.83,0,0,0-.13-1.1l.11,0a3.32,3.32,0,0,1,.18,1.1,2.31,2.31,0,0,1-.75,1.71,2.55,2.55,0,0,1-1.84.73,2.09,2.09,0,0,1-1.54-.6,2.06,2.06,0,0,1-.6-1.52,3,3,0,0,1,1.32-2.5,12.13,12.13,0,0,1,3.89-1.68l3-.78a26.48,26.48,0,0,0,3.6-1.32l.18.29a6.07,6.07,0,0,0-2.06,2.48,33.12,33.12,0,0,0-1.39,3.62,26,26,0,0,1-3.71,7.64,20.71,20.71,0,0,0,7.71-7.87l1.34-2.3a10.53,10.53,0,0,1,2.06-2.39,4.75,4.75,0,0,1,2.46-1.36q.4,0,.4.36,0,.69-2.1,1.72a14.7,14.7,0,0,0-1.52,4.29q-1.45,5.88-3.64,8.29,10.66-5.63,10.66-12.2c0-.13,0-.29,0-.47a1,1,0,0,1-.51-.89,1.19,1.19,0,0,1,.4-.89,1.38,1.38,0,0,1,1-.38,1.31,1.31,0,0,1,1.06.55A2.17,2.17,0,0,1,201.13,216.25Z"/><path class="cls-2" d="M208.41,224.1q-4.18,5.92-8.34,5.92a3,3,0,0,1-2.16-.73,2.59,2.59,0,0,1-.77-2,4.92,4.92,0,0,1,2.06-3.78,7.35,7.35,0,0,1,4.83-1.81q1.88,0,1.88,1.39,0,1.09-1.48,1.88A19,19,0,0,1,200,226.4q-.09.89-.09.94,0,2,1.77,2,2.75,0,6.64-5.34Zm-4.6-1.56q0-.58-.47-.58-.67,0-1.63,1.1a8.48,8.48,0,0,0-1.68,3.17,5.22,5.22,0,0,0,2.79-1.48A3.11,3.11,0,0,0,203.81,222.53Z"/><path class="cls-2" d="M216.53,214.66,209.37,227a3.65,3.65,0,0,0-.58,1.77q0,.58.6.58t2.06-1.32a25.39,25.39,0,0,0,3.31-4.07l.11.09q-3.93,5.9-6.57,5.9-1.68,0-1.68-1.9a5.94,5.94,0,0,1,.92-2.77l5.88-10.46Z"/><path class="cls-2" d="M222.94,214.66,215.79,227a3.65,3.65,0,0,0-.58,1.77q0,.58.6.58t2.06-1.32a25.39,25.39,0,0,0,3.31-4.07l.11.09q-3.93,5.9-6.57,5.9-1.68,0-1.68-1.9a5.94,5.94,0,0,1,.92-2.77l5.88-10.46Z"/><path class="cls-2" d="M233.42,223.9a34.78,34.78,0,0,1-3.67,4.54,4.4,4.4,0,0,1-2.82,1.54,1.69,1.69,0,0,1-1.3-.53,2,2,0,0,1-.49-1.42,5.46,5.46,0,0,1,1.23-2.88l1-1.3a1.84,1.84,0,0,0,.4-1q0-.56-.69-.56-.87,0-2.53,1.79a24.23,24.23,0,0,0-3.64,5.45l-3,.16,4.4-7.73,3-.11-3.08,4.45.2.11q3.51-4.83,5.83-4.83a1.87,1.87,0,0,1,1.33.49,1.61,1.61,0,0,1,.53,1.23,3.12,3.12,0,0,1-.49,1.52l-1.14,1.72a6.41,6.41,0,0,0-1.18,2.26q0,.54.45.54,1.5,0,5.48-5.57Z"/><path class="cls-2" d="M242.74,224.1q-4.18,5.92-8.34,5.92a3,3,0,0,1-2.16-.73,2.59,2.59,0,0,1-.77-2,4.92,4.92,0,0,1,2.06-3.78,7.35,7.35,0,0,1,4.83-1.81q1.88,0,1.88,1.39,0,1.09-1.48,1.88a19,19,0,0,1-4.45,1.41q-.09.89-.09.94,0,2,1.77,2,2.75,0,6.64-5.34Zm-4.6-1.56q0-.58-.47-.58Q237,222,236,223a8.48,8.48,0,0,0-1.68,3.17,5.22,5.22,0,0,0,2.79-1.48A3.11,3.11,0,0,0,238.14,222.53Z"/><path class="cls-2" d="M251.91,224.07q-3.64,6.08-8.74,6.08a4.12,4.12,0,0,1-2.45-.64,2,2,0,0,1-.88-1.75,1.75,1.75,0,0,1,.5-1.23,1.5,1.5,0,0,1,1.11-.54,1.16,1.16,0,0,1,.84.31,1,1,0,0,1,.32.78,1,1,0,0,1-.27.69.83.83,0,0,1-.63.29,1.38,1.38,0,0,1-.42-.13,1.92,1.92,0,0,0-.13.67,1.2,1.2,0,0,0,.41.92,1.48,1.48,0,0,0,1,.38,1.75,1.75,0,0,0,1.3-.55,1.89,1.89,0,0,0,.54-1.37,4.16,4.16,0,0,0-1-1.94,3.32,3.32,0,0,1-.78-1.81,2.22,2.22,0,0,1,1-1.83,4.11,4.11,0,0,1,2.49-.76,3.6,3.6,0,0,1,2,.48,1.42,1.42,0,0,1,.73,1.22,1.2,1.2,0,0,1-.46.92,1.65,1.65,0,0,1-1.13.4,2.41,2.41,0,0,1-.71-.18,2.16,2.16,0,0,0,.31-1.18,1.61,1.61,0,0,0-.29-1,.87.87,0,0,0-.71-.38.93.93,0,0,0-.76.36,1.41,1.41,0,0,0-.29.92,2.12,2.12,0,0,0,.34,1.1q.13.22.8,1.07a3.42,3.42,0,0,1,.87,2,2.06,2.06,0,0,1-1.45,2.08l0,.13a7.93,7.93,0,0,0,3.15-1.81,15.2,15.2,0,0,0,3.13-3.75Z"/><path class="cls-2" d="M261,224.07q-3.64,6.08-8.74,6.08a4.12,4.12,0,0,1-2.45-.64,2,2,0,0,1-.88-1.75,1.75,1.75,0,0,1,.5-1.23,1.5,1.5,0,0,1,1.11-.54,1.16,1.16,0,0,1,.84.31,1,1,0,0,1,.32.78,1,1,0,0,1-.27.69.83.83,0,0,1-.63.29,1.38,1.38,0,0,1-.42-.13,1.92,1.92,0,0,0-.13.67,1.2,1.2,0,0,0,.41.92,1.48,1.48,0,0,0,1,.38,1.75,1.75,0,0,0,1.3-.55,1.89,1.89,0,0,0,.54-1.37,4.16,4.16,0,0,0-1-1.94,3.32,3.32,0,0,1-.78-1.81,2.22,2.22,0,0,1,1-1.83,4.11,4.11,0,0,1,2.49-.76,3.6,3.6,0,0,1,2,.48,1.42,1.42,0,0,1,.73,1.22,1.2,1.2,0,0,1-.46.92,1.65,1.65,0,0,1-1.13.4,2.41,2.41,0,0,1-.71-.18,2.16,2.16,0,0,0,.31-1.18,1.61,1.61,0,0,0-.29-1,.87.87,0,0,0-.71-.38.93.93,0,0,0-.76.36,1.41,1.41,0,0,0-.29.92,2.12,2.12,0,0,0,.34,1.1q.13.22.8,1.07a3.42,3.42,0,0,1,.87,2,2.06,2.06,0,0,1-1.45,2.08l0,.13a7.93,7.93,0,0,0,3.15-1.81,15.2,15.2,0,0,0,3.13-3.75Z"/><path class="cls-2" d="M285.39,226a5,5,0,0,1-2.32,2.93,8,8,0,0,1-4.34,1.16,7.5,7.5,0,0,1-4.34-1.21,6.54,6.54,0,0,1-3.53,1.27,3.09,3.09,0,0,1-2.27-.85,2.91,2.91,0,0,1-.86-2.17q0-2.77,4.22-4.27a6.79,6.79,0,0,1,2-3.75,4.42,4.42,0,0,1,3.11-1.41,1.49,1.49,0,0,1,1.08.4,1.35,1.35,0,0,1,.41,1,2.19,2.19,0,0,1-1.08,1.84,12.92,12.92,0,0,1-3.54,1.46,7.45,7.45,0,0,0,2.08,4.94,6.59,6.59,0,0,0,.85-1l1.07-1.45q1.83-2.35,3.4-2.35a1.72,1.72,0,0,1,1.22.45,1.42,1.42,0,0,1,.48,1.07,1.19,1.19,0,0,1-.38.88,1.24,1.24,0,0,1-.89.37A1,1,0,0,1,281,225a1,1,0,0,1-.31-.74,1.2,1.2,0,0,1,.38-.87,1.11,1.11,0,0,0-.6-.16q-.76,0-1.83,1.18l-2.48,3a5.47,5.47,0,0,0,4.27,1.84,5.18,5.18,0,0,0,3-.91,4.73,4.73,0,0,0,1.81-2.45Zm-11.15,2.77a5.6,5.6,0,0,1-2.37-4.92q0-.13,0-.39c0-.17,0-.3,0-.39a2.83,2.83,0,0,0-1.39,1.2,3.64,3.64,0,0,0-.56,2,3.13,3.13,0,0,0,.75,2.16,2.35,2.35,0,0,0,1.82.84A2.73,2.73,0,0,0,274.23,228.77Zm2.35-9.61q0-1-.76-1-.6,0-1.18,1.09a6.54,6.54,0,0,0-.69,3,3.35,3.35,0,0,0,1.94-1.18A3,3,0,0,0,276.58,219.16Z"/><path class="cls-2" d="M316,213.86q-2.24.69-2.39.76a5,5,0,0,0-2,1.39,7.34,7.34,0,0,1,2.84,5.72,7.1,7.1,0,0,1-1.1,3.74,8.4,8.4,0,0,1-3,2.92,15.29,15.29,0,0,1-7.6,1.56l-3.87-.27a13.57,13.57,0,0,1-2.5.29q-2.12,0-2.12-.78,0-.45.85-.45a24.42,24.42,0,0,1,4.13.65q2.39-.54,5-5.43.69-1.36,1.41-2.73a19,19,0,0,1,2-3.08,11.57,11.57,0,0,1,2.79-2.53,7.3,7.3,0,0,0-4.25-1.21,7.91,7.91,0,0,0-5.91,2.59,7.4,7.4,0,0,0-2.26,5.25,3.16,3.16,0,0,0,.59,2,1.94,1.94,0,0,0,1.6.74,3.11,3.11,0,0,0,2.45-1.36,5,5,0,0,0,1.08-3.22,7.21,7.21,0,0,0-.69-3l.13,0a7.54,7.54,0,0,1,.72,3,5.36,5.36,0,0,1-1.23,3.46,4.33,4.33,0,0,1-3.42,1.81,3.43,3.43,0,0,1-2.56-1,3.54,3.54,0,0,1-1-2.58,6.87,6.87,0,0,1,2.88-5.52,11.22,11.22,0,0,1,7.22-2.37,9.49,9.49,0,0,1,5,1.25A10.36,10.36,0,0,1,316,213.86Zm-4,5.52a4.86,4.86,0,0,0-.78-2.88,29.51,29.51,0,0,0-2.3,4,32,32,0,0,1-2.06,3.8,12.66,12.66,0,0,1-7.29,5.12,14.09,14.09,0,0,0,3,.31,8.45,8.45,0,0,0,6.26-2.53,10.8,10.8,0,0,0,2.3-3.58A11.36,11.36,0,0,0,312,219.38Z"/><path class="cls-2" d="M325.89,224.1q-4.18,5.92-8.34,5.92a3,3,0,0,1-2.16-.73,2.59,2.59,0,0,1-.77-2,4.92,4.92,0,0,1,2.06-3.78,7.35,7.35,0,0,1,4.83-1.81q1.88,0,1.88,1.39,0,1.09-1.48,1.88a19,19,0,0,1-4.45,1.41q-.09.89-.09.94,0,2,1.77,2,2.75,0,6.64-5.34Zm-4.6-1.56q0-.58-.47-.58-.67,0-1.63,1.1a8.48,8.48,0,0,0-1.68,3.17,5.22,5.22,0,0,0,2.79-1.48A3.11,3.11,0,0,0,321.28,222.53Z"/><path class="cls-2" d="M333.6,224q-4.07,5.92-7.47,5.92-2.1,0-2.1-2a5.85,5.85,0,0,1,.87-2.39l1.7-3.15h-1.81l.2-.25h1.79l1.77-3,3-.18-1.92,3.13h3l-.18.25h-2.93l-2.24,4a5.09,5.09,0,0,0-.8,2.26q0,.8.74.8a4.67,4.67,0,0,0,2.59-1.32,20.7,20.7,0,0,0,3.71-4.18Z"/><path class="cls-2" d="M345.6,224a2.94,2.94,0,0,1-2.24,1.36,2.2,2.2,0,0,1-1.9-1.34q.07.56.07.76a5,5,0,0,1-1.94,3.78A6.71,6.71,0,0,1,335,230a3,3,0,0,1-2.21-.78,2.88,2.88,0,0,1-.8-2.17,4.91,4.91,0,0,1,1.83-3.8,6.4,6.4,0,0,1,4.36-1.7,3.27,3.27,0,0,1,3.2,1.83,5.48,5.48,0,0,0,.85,1.34,1.57,1.57,0,0,0,1.18.49,2.73,2.73,0,0,0,2.06-1.3Zm-6.12-1q0-1.21-.92-1.21t-2.28,1.83a9.32,9.32,0,0,0-2,5q0,1.23.92,1.23t2.1-1.5a12.12,12.12,0,0,0,1.36-2.44A8.42,8.42,0,0,0,339.48,223Z"/><path class="cls-2" d="M357.94,224.07q-4,5.95-7.67,5.95a2.6,2.6,0,0,1-1.72-.53,1.78,1.78,0,0,1-.63-1.44,1.67,1.67,0,0,1,0-.31,5.9,5.9,0,0,1-4.63,2.23,2.44,2.44,0,0,1-1.63-.51,1.68,1.68,0,0,1-.6-1.34,1.78,1.78,0,0,1,.44-1.24,1.4,1.4,0,0,1,1.08-.48,1.11,1.11,0,0,1,.77.29.92.92,0,0,1,.32.71q0,.92-.83.92a1.49,1.49,0,0,1-.42-.07,1.15,1.15,0,0,0-.13.51q0,1,1.23,1,1.52,0,3.08-1.92a6.64,6.64,0,0,0,1.79-4.07q0-1.12-1-1.12t-2,1.54l-.11-.09q1.45-2.26,3.24-2.26,2,0,2,2.08,2.44-2,4-2t1.68,1.38a1.45,1.45,0,0,1-.47,1.09,1.62,1.62,0,0,1-1.16.45,1.94,1.94,0,0,1-.78-.2,3.92,3.92,0,0,0,.56-1.74q0-.67-.54-.67t-1.85,1.27a6.31,6.31,0,0,0-2,4.26,1.47,1.47,0,0,0,.41,1.07,1.45,1.45,0,0,0,1.08.42q2.41,0,6.19-5.28Z"/></g></g></svg>